<?xml version="1.0" encoding="UTF-8"?>
<svg xmlns="http://www.w3.org/2000/svg" xmlns:xlink="http://www.w3.org/1999/xlink" width="56px" height="74px" viewBox="0 0 56 74" version="1.1">
<g id="surface1">
<path style=" stroke:none;fill-rule:nonzero;fill:rgb(0%,0%,0%);fill-opacity:1;" d="M 0 37 L 0 74 L 56 74 L 56 0 L 0 0 Z M 55.625 37 L 55.625 73.628906 L 0.375 73.628906 L 0.375 0.371094 L 55.625 0.371094 Z M 55.625 37 "/>
<path style=" stroke:none;fill-rule:nonzero;fill:rgb(0%,0%,0%);fill-opacity:1;" d="M 10.359375 6.4375 L 10.203125 6.605469 L 18.9375 15.308594 L 27.671875 24.007812 L 18.9375 32.710938 L 10.195312 41.414062 L 10.351562 41.566406 L 10.5 41.71875 L 19.242188 33.011719 L 27.976562 24.308594 L 36.710938 33.011719 L 45.449219 41.714844 L 45.59375 41.578125 C 45.667969 41.503906 45.734375 41.425781 45.734375 41.398438 C 45.734375 41.375 41.8125 37.445312 37.019531 32.667969 L 28.304688 23.984375 L 45.757812 6.601562 L 45.601562 6.453125 L 45.453125 6.296875 L 36.726562 14.992188 L 28 23.683594 L 19.257812 14.976562 L 10.519531 6.269531 Z M 10.359375 6.4375 "/>
<path style=" stroke:none;fill-rule:nonzero;fill:rgb(0%,0%,0%);fill-opacity:1;" d="M 24.179688 7.113281 C 24.039062 7.164062 23.84375 7.257812 23.742188 7.320312 C 23.59375 7.417969 23.5625 7.464844 23.574219 7.566406 C 23.589844 7.683594 23.644531 7.710938 24.324219 7.972656 C 24.722656 8.128906 25.082031 8.28125 25.125 8.316406 C 25.234375 8.402344 25.222656 8.816406 25.105469 9.121094 C 24.996094 9.417969 24.761719 9.714844 24.640625 9.714844 C 24.589844 9.714844 24.242188 9.597656 23.871094 9.460938 C 23.5 9.320312 23.132812 9.203125 23.054688 9.203125 C 22.921875 9.203125 22.914062 9.210938 22.914062 9.375 C 22.914062 9.738281 23.308594 10.335938 23.761719 10.671875 C 24.132812 10.941406 24.480469 11.0625 25.03125 11.113281 C 25.289062 11.136719 25.582031 11.199219 25.683594 11.242188 C 25.792969 11.289062 26.066406 11.507812 26.296875 11.726562 L 26.714844 12.128906 L 26.109375 12.734375 C 25.363281 13.488281 25.246094 13.5625 24.707031 13.621094 C 24.027344 13.695312 23.835938 13.757812 23.476562 14.03125 C 23.148438 14.285156 22.804688 14.980469 22.890625 15.242188 C 22.9375 15.390625 23.105469 15.363281 23.523438 15.128906 C 23.734375 15.015625 23.949219 14.921875 24.003906 14.921875 C 24.113281 14.921875 24.675781 15.25 24.738281 15.347656 C 24.808594 15.457031 24.785156 16.144531 24.710938 16.253906 C 24.671875 16.3125 24.484375 16.4375 24.300781 16.539062 C 23.90625 16.753906 23.828125 16.832031 23.871094 16.960938 C 23.925781 17.144531 24.5 17.246094 24.941406 17.152344 C 25.632812 17.011719 26.136719 16.511719 26.316406 15.785156 C 26.425781 15.328125 26.628906 15.074219 27.550781 14.210938 L 28.128906 13.664062 L 28.765625 14.273438 C 29.480469 14.957031 29.671875 15.226562 29.960938 15.957031 C 30.199219 16.550781 30.402344 16.808594 30.804688 17.007812 C 31.171875 17.1875 31.496094 17.226562 31.878906 17.132812 C 32.976562 16.855469 33.4375 15.613281 32.796875 14.660156 C 32.609375 14.386719 32.320312 14.183594 31.863281 14.015625 C 31.257812 13.785156 31.042969 13.632812 30.300781 12.902344 C 29.910156 12.523438 29.585938 12.183594 29.585938 12.15625 C 29.585938 12.066406 30.476562 11.230469 30.664062 11.144531 C 30.753906 11.101562 31.042969 11.042969 31.304688 11.019531 C 31.859375 10.96875 32.175781 10.84375 32.5 10.550781 C 32.851562 10.226562 33.097656 9.707031 33.019531 9.421875 C 32.992188 9.308594 32.976562 9.300781 32.863281 9.324219 C 32.792969 9.34375 32.554688 9.449219 32.332031 9.566406 L 31.925781 9.78125 L 31.722656 9.683594 C 31.613281 9.632812 31.433594 9.519531 31.328125 9.441406 L 31.125 9.296875 L 31.125 8.878906 C 31.125 8.386719 31.125 8.386719 31.640625 8.101562 C 31.832031 7.996094 32.019531 7.871094 32.046875 7.8125 C 32.097656 7.734375 32.089844 7.707031 31.984375 7.628906 C 31.730469 7.429688 30.980469 7.4375 30.5625 7.640625 C 30.078125 7.882812 29.796875 8.230469 29.601562 8.84375 C 29.441406 9.332031 29.339844 9.480469 28.667969 10.148438 L 28.113281 10.695312 L 27.679688 10.25 C 27.203125 9.761719 27.082031 9.542969 26.953125 8.972656 C 26.769531 8.109375 26.734375 8.011719 26.5625 7.761719 C 26.25 7.300781 25.707031 7.0625 24.921875 7.03125 C 24.515625 7.019531 24.386719 7.03125 24.179688 7.113281 Z M 25.25 7.410156 C 25.652344 7.496094 25.984375 7.664062 26.179688 7.882812 C 26.367188 8.101562 26.441406 8.265625 26.507812 8.65625 C 26.652344 9.480469 26.109375 10.515625 25.425781 10.714844 C 25.066406 10.816406 24.578125 10.726562 24.144531 10.472656 C 23.859375 10.308594 23.324219 9.714844 23.464844 9.714844 C 23.484375 9.714844 23.714844 9.796875 23.980469 9.902344 C 24.613281 10.148438 24.765625 10.148438 25.035156 9.894531 C 25.34375 9.613281 25.527344 9.207031 25.558594 8.742188 C 25.601562 8.125 25.527344 8.027344 24.757812 7.742188 C 24.5 7.644531 24.269531 7.554688 24.246094 7.53125 C 24.210938 7.492188 24.40625 7.421875 24.6875 7.375 C 24.890625 7.339844 24.9375 7.34375 25.25 7.410156 Z M 31.125 7.957031 C 30.824219 8.167969 30.777344 8.273438 30.761719 8.84375 C 30.742188 9.488281 30.78125 9.5625 31.285156 9.871094 C 31.71875 10.140625 31.914062 10.179688 32.222656 10.042969 C 32.34375 9.992188 32.453125 9.945312 32.460938 9.945312 C 32.515625 9.945312 32.457031 10.042969 32.292969 10.21875 C 32.007812 10.507812 31.792969 10.597656 31.246094 10.648438 C 30.585938 10.710938 30.320312 10.84375 29.753906 11.386719 L 29.3125 11.816406 L 29.179688 11.722656 C 29.109375 11.671875 28.90625 11.480469 28.722656 11.300781 L 28.398438 10.96875 L 28.941406 10.421875 C 29.65625 9.707031 29.792969 9.515625 29.9375 9.046875 C 30.082031 8.574219 30.269531 8.269531 30.515625 8.105469 C 30.730469 7.96875 31.003906 7.859375 31.167969 7.855469 C 31.269531 7.855469 31.269531 7.859375 31.125 7.957031 Z M 26.941406 9.964844 C 27.144531 10.277344 30.4375 13.628906 30.753906 13.851562 C 30.878906 13.941406 30.980469 14.023438 30.988281 14.039062 C 30.988281 14.050781 30.894531 14.113281 30.777344 14.171875 C 30.5 14.316406 30.25 14.578125 30.101562 14.875 L 29.980469 15.113281 L 29.757812 14.796875 C 29.632812 14.609375 28.800781 13.730469 27.757812 12.675781 L 25.96875 10.867188 L 26.121094 10.757812 C 26.296875 10.621094 26.628906 10.128906 26.703125 9.886719 C 26.730469 9.792969 26.757812 9.714844 26.761719 9.714844 C 26.769531 9.714844 26.847656 9.828125 26.941406 9.964844 Z M 27.09375 14.097656 C 26.320312 14.898438 26.074219 15.226562 25.988281 15.546875 C 25.808594 16.273438 25.402344 16.699219 24.804688 16.796875 C 24.644531 16.820312 24.628906 16.816406 24.707031 16.765625 C 25.097656 16.507812 25.152344 16.386719 25.152344 15.769531 C 25.152344 15.195312 25.097656 15.09375 24.601562 14.78125 C 24.300781 14.585938 24.207031 14.550781 24.019531 14.550781 C 23.886719 14.550781 23.71875 14.585938 23.613281 14.640625 C 23.382812 14.757812 23.378906 14.714844 23.589844 14.464844 C 23.835938 14.175781 24.164062 14.042969 24.699219 13.996094 C 25.371094 13.941406 25.59375 13.816406 26.339844 13.066406 L 26.941406 12.460938 L 27.394531 12.890625 L 27.847656 13.316406 Z M 31.886719 14.417969 C 32.089844 14.480469 32.574219 14.886719 32.511719 14.949219 C 32.492188 14.96875 32.382812 14.878906 32.261719 14.757812 C 32.074219 14.5625 32.007812 14.527344 31.808594 14.496094 C 31.675781 14.480469 31.507812 14.445312 31.4375 14.429688 C 31.339844 14.40625 31.269531 14.421875 31.167969 14.496094 C 31.039062 14.59375 30.660156 14.753906 30.660156 14.710938 C 30.660156 14.667969 30.964844 14.484375 31.121094 14.429688 C 31.335938 14.347656 31.644531 14.347656 31.886719 14.417969 Z M 30.59375 14.921875 C 30.566406 15.066406 30.378906 15.351562 30.34375 15.316406 C 30.316406 15.292969 30.5625 14.78125 30.597656 14.78125 C 30.613281 14.78125 30.613281 14.847656 30.59375 14.921875 Z M 32.023438 15.066406 C 32.132812 15.179688 32.199219 15.292969 32.203125 15.375 C 32.203125 15.445312 32.222656 15.542969 32.242188 15.59375 C 32.269531 15.660156 32.242188 15.761719 32.164062 15.921875 C 32.074219 16.105469 32.003906 16.171875 31.832031 16.253906 C 31.636719 16.347656 31.59375 16.351562 31.375 16.300781 C 30.847656 16.179688 30.636719 15.726562 30.878906 15.238281 C 31.027344 14.933594 31.242188 14.820312 31.59375 14.855469 C 31.808594 14.878906 31.875 14.910156 32.023438 15.066406 Z M 32.695312 15.460938 L 32.714844 15.734375 L 32.648438 15.570312 C 32.570312 15.375 32.550781 15.066406 32.625 15.140625 C 32.648438 15.164062 32.679688 15.3125 32.695312 15.460938 Z M 30.421875 15.679688 C 30.449219 15.765625 30.453125 15.882812 30.429688 15.964844 C 30.394531 16.101562 30.394531 16.097656 30.34375 15.859375 C 30.308594 15.726562 30.285156 15.582031 30.285156 15.542969 C 30.285156 15.433594 30.371094 15.511719 30.421875 15.679688 Z M 32.625 16.042969 C 32.511719 16.363281 32.164062 16.6875 31.851562 16.761719 L 31.710938 16.792969 L 31.859375 16.671875 C 31.9375 16.605469 32.070312 16.535156 32.148438 16.519531 C 32.296875 16.488281 32.433594 16.347656 32.433594 16.226562 C 32.433594 16.152344 32.628906 15.847656 32.65625 15.875 C 32.671875 15.882812 32.652344 15.957031 32.625 16.042969 Z M 30.800781 16.449219 C 30.925781 16.609375 30.976562 16.632812 31.195312 16.65625 C 31.332031 16.667969 31.503906 16.714844 31.578125 16.757812 C 31.710938 16.832031 31.710938 16.832031 31.449219 16.808594 C 31.121094 16.785156 30.871094 16.660156 30.644531 16.414062 C 30.550781 16.304688 30.472656 16.214844 30.472656 16.199219 C 30.472656 16.132812 30.667969 16.289062 30.800781 16.449219 Z M 30.800781 16.449219 "/>
<path style=" stroke:none;fill-rule:nonzero;fill:rgb(0%,0%,0%);fill-opacity:1;" d="M 42.1875 18.761719 C 39.621094 18.992188 37.652344 20.921875 37.375 23.472656 C 37.28125 24.304688 37.417969 25.222656 37.75 26.019531 C 38.316406 27.390625 39.515625 28.503906 40.945312 28.976562 C 42.164062 29.386719 43.671875 29.296875 44.832031 28.75 C 47.160156 27.652344 48.351562 25.101562 47.691406 22.613281 C 47.578125 22.175781 47.222656 21.417969 46.945312 21.011719 C 46.199219 19.917969 44.921875 19.085938 43.613281 18.847656 C 43.195312 18.773438 42.511719 18.730469 42.1875 18.761719 Z M 42.457031 19.3125 C 42.597656 19.546875 42.667969 19.585938 42.796875 19.523438 C 42.90625 19.460938 42.910156 19.421875 42.816406 19.242188 C 42.746094 19.109375 42.746094 19.105469 42.855469 19.105469 C 42.914062 19.105469 43.171875 19.136719 43.429688 19.175781 C 43.820312 19.230469 43.902344 19.257812 43.996094 19.359375 C 44.054688 19.425781 44.101562 19.535156 44.101562 19.605469 C 44.101562 19.78125 44.160156 19.855469 44.292969 19.839844 C 44.382812 19.828125 44.40625 19.792969 44.417969 19.648438 C 44.425781 19.554688 44.453125 19.476562 44.488281 19.476562 C 44.546875 19.476562 45.351562 19.921875 45.457031 20.019531 C 45.523438 20.070312 45.53125 20.140625 45.515625 20.359375 C 45.492188 20.597656 45.5 20.644531 45.570312 20.667969 C 45.671875 20.707031 45.796875 20.632812 45.816406 20.515625 C 45.828125 20.472656 45.851562 20.410156 45.867188 20.390625 C 45.890625 20.375 46.089844 20.5625 46.3125 20.824219 L 46.722656 21.292969 L 46.59375 21.539062 C 46.480469 21.753906 46.46875 21.800781 46.523438 21.867188 C 46.617188 21.976562 46.746094 21.953125 46.835938 21.820312 C 46.875 21.753906 46.929688 21.722656 46.953125 21.738281 C 47.003906 21.796875 47.367188 22.738281 47.367188 22.828125 C 47.367188 22.871094 47.292969 22.960938 47.203125 23.027344 C 47.082031 23.121094 47.039062 23.191406 47.039062 23.28125 C 47.039062 23.460938 47.160156 23.507812 47.324219 23.386719 C 47.394531 23.335938 47.460938 23.304688 47.480469 23.320312 C 47.492188 23.339844 47.507812 23.617188 47.507812 23.949219 L 47.507812 24.546875 L 47.246094 24.664062 C 47.011719 24.765625 46.988281 24.789062 47.003906 24.90625 C 47.015625 25.019531 47.03125 25.03125 47.21875 25.019531 C 47.355469 25.015625 47.414062 25.03125 47.398438 25.066406 C 47.390625 25.101562 47.300781 25.359375 47.207031 25.648438 C 47.015625 26.210938 47.03125 26.203125 46.644531 26.226562 C 46.46875 26.238281 46.457031 26.25 46.457031 26.378906 C 46.457031 26.503906 46.476562 26.519531 46.609375 26.53125 C 46.691406 26.542969 46.761719 26.566406 46.761719 26.589844 C 46.761719 26.640625 46.011719 27.539062 45.972656 27.539062 C 45.957031 27.539062 45.84375 27.511719 45.722656 27.476562 C 45.457031 27.402344 45.359375 27.429688 45.359375 27.585938 C 45.359375 27.679688 45.398438 27.722656 45.503906 27.769531 L 45.648438 27.828125 L 45.519531 27.921875 C 45.445312 27.972656 45.203125 28.121094 44.972656 28.257812 L 44.566406 28.5 L 44.394531 28.359375 C 44.292969 28.273438 44.164062 28.214844 44.089844 28.214844 C 43.980469 28.214844 43.960938 28.234375 43.960938 28.351562 C 43.960938 28.4375 43.996094 28.511719 44.0625 28.558594 C 44.117188 28.601562 44.15625 28.636719 44.140625 28.652344 C 44.09375 28.695312 43.253906 28.867188 43.082031 28.867188 C 42.910156 28.867188 42.882812 28.847656 42.761719 28.664062 C 42.664062 28.527344 42.59375 28.46875 42.511719 28.46875 C 42.421875 28.46875 42.390625 28.5 42.382812 28.601562 C 42.375 28.675781 42.390625 28.761719 42.425781 28.800781 C 42.453125 28.835938 42.472656 28.878906 42.457031 28.890625 C 42.441406 28.902344 42.1875 28.875 41.882812 28.828125 C 41.398438 28.75 41.320312 28.726562 41.21875 28.613281 C 41.160156 28.542969 41.113281 28.429688 41.113281 28.359375 C 41.113281 28.199219 41.011719 28.101562 40.882812 28.144531 C 40.816406 28.164062 40.785156 28.21875 40.777344 28.355469 L 40.761719 28.539062 L 39.691406 27.945312 L 39.703125 27.644531 C 39.71875 27.398438 39.707031 27.339844 39.644531 27.3125 C 39.527344 27.269531 39.386719 27.367188 39.386719 27.496094 C 39.386719 27.703125 39.363281 27.683594 38.578125 26.789062 C 38.492188 26.691406 38.496094 26.6875 38.617188 26.476562 C 38.765625 26.222656 38.742188 26.078125 38.550781 26.078125 C 38.457031 26.078125 38.40625 26.109375 38.363281 26.203125 C 38.332031 26.265625 38.289062 26.304688 38.269531 26.28125 C 38.253906 26.257812 38.144531 25.992188 38.035156 25.691406 L 37.832031 25.140625 L 38.035156 24.9375 C 38.164062 24.804688 38.226562 24.710938 38.207031 24.664062 C 38.160156 24.542969 38.027344 24.519531 37.882812 24.601562 C 37.707031 24.707031 37.703125 24.683594 37.714844 24.003906 L 37.730469 23.449219 L 37.964844 23.335938 C 38.117188 23.261719 38.203125 23.183594 38.210938 23.121094 C 38.230469 22.976562 38.121094 22.910156 37.945312 22.960938 C 37.796875 23.003906 37.796875 23.003906 37.824219 22.871094 C 37.835938 22.796875 37.929688 22.53125 38.023438 22.277344 L 38.195312 21.824219 L 38.382812 21.808594 C 38.6875 21.789062 38.769531 21.757812 38.804688 21.65625 C 38.84375 21.53125 38.753906 21.429688 38.589844 21.429688 C 38.515625 21.429688 38.453125 21.414062 38.453125 21.402344 C 38.453125 21.386719 38.625 21.164062 38.835938 20.90625 C 39.203125 20.460938 39.222656 20.449219 39.359375 20.480469 C 39.4375 20.5 39.578125 20.511719 39.667969 20.515625 C 39.808594 20.523438 39.828125 20.507812 39.84375 20.40625 C 39.851562 20.308594 39.824219 20.269531 39.707031 20.214844 L 39.5625 20.144531 L 39.839844 19.953125 C 40.144531 19.746094 40.566406 19.523438 40.65625 19.523438 C 40.6875 19.527344 40.792969 19.585938 40.878906 19.660156 C 41.066406 19.824219 41.183594 19.839844 41.253906 19.714844 C 41.320312 19.585938 41.320312 19.585938 41.175781 19.457031 L 41.050781 19.347656 L 41.234375 19.292969 C 41.542969 19.214844 41.832031 19.15625 41.976562 19.136719 C 42.316406 19.09375 42.328125 19.09375 42.457031 19.3125 Z M 42.457031 19.3125 "/>
<path style=" stroke:none;fill-rule:nonzero;fill:rgb(0%,0%,0%);fill-opacity:1;" d="M 42.0625 21.152344 C 41.253906 21.289062 40.402344 21.925781 40.027344 22.679688 C 39.789062 23.152344 39.695312 23.617188 39.726562 24.167969 C 39.796875 25.328125 40.492188 26.273438 41.609375 26.714844 C 41.90625 26.828125 41.980469 26.84375 42.605469 26.84375 C 43.261719 26.84375 43.292969 26.839844 43.65625 26.691406 C 44.351562 26.410156 44.898438 25.910156 45.214844 25.257812 C 45.4375 24.796875 45.515625 24.417969 45.484375 23.84375 C 45.449219 23.042969 45.179688 22.457031 44.582031 21.894531 C 43.910156 21.257812 43.015625 20.996094 42.0625 21.152344 Z M 43.085938 21.503906 C 43.15625 21.527344 43.160156 21.558594 43.132812 21.769531 C 42.960938 22.90625 43.421875 23.3125 44.414062 22.886719 C 44.738281 22.75 44.820312 22.730469 44.851562 22.78125 C 44.953125 22.9375 45.089844 23.375 45.09375 23.566406 L 45.101562 23.769531 L 44.882812 23.804688 C 44.207031 23.90625 43.820312 24.183594 43.820312 24.578125 C 43.820312 24.769531 44.015625 25.132812 44.28125 25.429688 L 44.515625 25.691406 L 44.367188 25.835938 C 44.191406 25.996094 43.730469 26.308594 43.65625 26.308594 C 43.632812 26.308594 43.539062 26.175781 43.457031 26.011719 C 43.179688 25.480469 42.835938 25.246094 42.460938 25.320312 C 42.261719 25.355469 41.925781 25.699219 41.738281 26.046875 C 41.664062 26.191406 41.578125 26.308594 41.558594 26.308594 C 41.480469 26.308594 41.015625 25.996094 40.847656 25.832031 L 40.691406 25.6875 L 40.953125 25.417969 C 41.386719 24.964844 41.496094 24.542969 41.265625 24.222656 C 41.136719 24.046875 40.726562 23.855469 40.402344 23.816406 C 40.226562 23.800781 40.113281 23.761719 40.101562 23.71875 C 40.0625 23.621094 40.164062 23.207031 40.296875 22.929688 L 40.410156 22.683594 L 40.566406 22.777344 C 40.792969 22.910156 41.242188 23.054688 41.425781 23.054688 C 41.644531 23.054688 41.882812 22.949219 41.976562 22.804688 C 42.101562 22.613281 42.136719 22.371094 42.09375 21.949219 C 42.070312 21.726562 42.0625 21.539062 42.074219 21.527344 C 42.152344 21.445312 42.832031 21.429688 43.085938 21.503906 Z M 41.761719 22.164062 C 41.765625 22.46875 41.753906 22.511719 41.644531 22.621094 C 41.546875 22.714844 41.496094 22.734375 41.371094 22.714844 C 41.179688 22.683594 40.648438 22.457031 40.648438 22.40625 C 40.648438 22.324219 41.214844 21.851562 41.449219 21.734375 L 41.695312 21.609375 L 41.730469 21.714844 C 41.742188 21.777344 41.757812 21.976562 41.761719 22.164062 Z M 43.972656 21.851562 C 44.152344 21.972656 44.566406 22.363281 44.566406 22.410156 C 44.566406 22.457031 43.890625 22.730469 43.773438 22.730469 C 43.722656 22.730469 43.625 22.679688 43.5625 22.613281 C 43.464844 22.515625 43.445312 22.460938 43.445312 22.203125 C 43.445312 22.039062 43.460938 21.84375 43.476562 21.761719 L 43.503906 21.617188 L 43.664062 21.683594 C 43.753906 21.722656 43.894531 21.796875 43.972656 21.851562 Z M 40.652344 24.246094 C 40.867188 24.316406 40.984375 24.402344 41.035156 24.546875 C 41.074219 24.675781 40.898438 24.984375 40.675781 25.171875 C 40.464844 25.335938 40.457031 25.34375 40.390625 25.257812 C 40.296875 25.136719 40.136719 24.652344 40.089844 24.355469 L 40.054688 24.113281 L 40.246094 24.144531 C 40.347656 24.160156 40.535156 24.203125 40.652344 24.246094 Z M 45.136719 24.332031 C 45.113281 24.566406 44.964844 25.03125 44.835938 25.230469 C 44.742188 25.378906 44.738281 25.382812 44.644531 25.300781 C 44.414062 25.089844 44.191406 24.765625 44.191406 24.617188 C 44.191406 24.417969 44.308594 24.320312 44.667969 24.210938 C 45.097656 24.09375 45.15625 24.105469 45.136719 24.332031 Z M 42.871094 25.789062 C 43.015625 25.933594 43.285156 26.394531 43.246094 26.433594 C 43.109375 26.566406 42.101562 26.566406 41.96875 26.429688 C 41.933594 26.398438 42.164062 26.015625 42.335938 25.820312 C 42.511719 25.617188 42.6875 25.605469 42.871094 25.789062 Z M 42.871094 25.789062 "/>
<path style=" stroke:none;fill-rule:nonzero;fill:rgb(0%,0%,0%);fill-opacity:1;" d="M 42.496094 22.523438 C 42.453125 22.5625 42.421875 22.613281 42.421875 22.636719 C 42.421875 22.679688 42.550781 22.824219 42.589844 22.824219 C 42.667969 22.824219 42.792969 22.714844 42.792969 22.644531 C 42.792969 22.46875 42.621094 22.398438 42.496094 22.523438 Z M 42.496094 22.523438 "/>
<path style=" stroke:none;fill-rule:nonzero;fill:rgb(0%,0%,0%);fill-opacity:1;" d="M 42.195312 23.199219 C 41.621094 23.488281 41.558594 24.320312 42.074219 24.714844 C 42.21875 24.820312 42.304688 24.84375 42.578125 24.859375 C 42.960938 24.878906 43.117188 24.808594 43.335938 24.519531 C 43.515625 24.277344 43.550781 23.855469 43.40625 23.574219 C 43.191406 23.15625 42.621094 22.980469 42.195312 23.199219 Z M 42.917969 23.546875 C 43.203125 23.730469 43.230469 24.144531 42.976562 24.382812 C 42.859375 24.496094 42.792969 24.519531 42.605469 24.519531 C 42.421875 24.519531 42.355469 24.496094 42.238281 24.382812 C 42.050781 24.203125 42.007812 23.996094 42.121094 23.765625 C 42.273438 23.453125 42.628906 23.355469 42.917969 23.546875 Z M 42.917969 23.546875 "/>
<path style=" stroke:none;fill-rule:nonzero;fill:rgb(0%,0%,0%);fill-opacity:1;" d="M 41.160156 23.5625 C 41.160156 23.71875 41.304688 23.800781 41.421875 23.703125 C 41.542969 23.597656 41.480469 23.449219 41.3125 23.4375 C 41.167969 23.421875 41.160156 23.433594 41.160156 23.5625 Z M 41.160156 23.5625 "/>
<path style=" stroke:none;fill-rule:nonzero;fill:rgb(0%,0%,0%);fill-opacity:1;" d="M 43.75 23.519531 C 43.683594 23.71875 43.957031 23.839844 44.054688 23.664062 C 44.125 23.53125 44.0625 23.425781 43.914062 23.425781 C 43.820312 23.425781 43.769531 23.453125 43.75 23.519531 Z M 43.75 23.519531 "/>
<path style=" stroke:none;fill-rule:nonzero;fill:rgb(0%,0%,0%);fill-opacity:1;" d="M 41.671875 24.984375 C 41.585938 25.089844 41.660156 25.238281 41.8125 25.238281 C 41.960938 25.238281 42.023438 25.136719 41.953125 25.003906 C 41.894531 24.894531 41.753906 24.886719 41.671875 24.984375 Z M 41.671875 24.984375 "/>
<path style=" stroke:none;fill-rule:nonzero;fill:rgb(0%,0%,0%);fill-opacity:1;" d="M 43.320312 24.945312 C 43.289062 24.957031 43.261719 25.03125 43.261719 25.105469 C 43.261719 25.226562 43.273438 25.238281 43.398438 25.238281 C 43.558594 25.238281 43.628906 25.132812 43.554688 25.011719 C 43.503906 24.933594 43.414062 24.90625 43.320312 24.945312 Z M 43.320312 24.945312 "/>
<path style=" stroke:none;fill-rule:nonzero;fill:rgb(0%,0%,0%);fill-opacity:1;" d="M 17.101562 20.039062 C 16.824219 20.117188 16.5625 20.207031 16.523438 20.234375 C 16.464844 20.285156 16.472656 20.546875 16.546875 20.875 C 16.570312 20.980469 16.546875 21.019531 16.371094 21.140625 C 16.171875 21.273438 15.910156 21.539062 15.679688 21.835938 L 15.5625 21.984375 L 15.316406 21.910156 C 14.847656 21.773438 14.8125 21.820312 14.578125 22.714844 C 14.453125 23.214844 14.453125 23.242188 14.527344 23.324219 C 14.574219 23.375 14.738281 23.449219 14.886719 23.492188 C 15.121094 23.558594 15.167969 23.589844 15.167969 23.671875 C 15.167969 23.859375 15.300781 24.417969 15.410156 24.667969 L 15.507812 24.910156 L 15.316406 25.117188 C 15.085938 25.371094 15.058594 25.5625 15.226562 25.746094 L 15.328125 25.863281 L 15.167969 25.75 C 15.078125 25.691406 15 25.640625 14.992188 25.636719 C 14.988281 25.636719 15.011719 25.519531 15.050781 25.378906 C 15.132812 25.066406 15.132812 25 15.0625 24.902344 C 14.992188 24.8125 14.03125 24.542969 13.789062 24.542969 C 13.609375 24.542969 13.519531 24.660156 13.464844 24.96875 C 13.421875 25.195312 13.378906 25.222656 13.042969 25.253906 C 12.890625 25.261719 12.59375 25.34375 12.390625 25.421875 L 12.015625 25.566406 L 11.808594 25.355469 C 11.492188 25.050781 11.441406 25.0625 10.90625 25.601562 C 10.363281 26.140625 10.351562 26.203125 10.660156 26.527344 L 10.859375 26.746094 L 10.753906 26.988281 C 10.695312 27.117188 10.621094 27.359375 10.59375 27.523438 C 10.484375 28.113281 10.503906 28.074219 10.1875 28.171875 C 9.777344 28.304688 9.765625 28.332031 9.945312 29.019531 C 10.023438 29.332031 10.121094 29.632812 10.160156 29.6875 C 10.234375 29.8125 10.378906 29.824219 10.691406 29.730469 L 10.90625 29.664062 L 11.132812 29.949219 C 11.261719 30.105469 11.480469 30.324219 11.621094 30.441406 C 11.894531 30.664062 11.894531 30.664062 11.828125 31.121094 C 11.800781 31.304688 11.8125 31.367188 11.867188 31.414062 C 11.964844 31.496094 12.914062 31.742188 13.128906 31.746094 C 13.285156 31.746094 13.3125 31.730469 13.371094 31.59375 C 13.402344 31.515625 13.445312 31.367188 13.464844 31.269531 C 13.5 31.082031 13.472656 31.09375 14 31.011719 C 14.167969 30.988281 14.433594 30.914062 14.589844 30.855469 L 14.871094 30.738281 L 15.085938 30.941406 C 15.414062 31.25 15.476562 31.230469 16.019531 30.6875 C 16.550781 30.152344 16.566406 30.101562 16.261719 29.796875 L 16.054688 29.585938 L 16.199219 29.21875 C 16.28125 29.003906 16.351562 28.722656 16.367188 28.535156 L 16.394531 28.21875 L 16.726562 28.113281 C 17.039062 28.011719 17.058594 27.996094 17.070312 27.855469 C 17.078125 27.773438 17.019531 27.453125 16.933594 27.144531 C 16.761719 26.484375 16.71875 26.445312 16.34375 26.53125 C 16.222656 26.558594 16.089844 26.59375 16.054688 26.605469 C 16.007812 26.625 15.945312 26.574219 15.871094 26.457031 L 15.757812 26.285156 L 15.875 26.386719 C 16.058594 26.558594 16.226562 26.527344 16.476562 26.28125 L 16.691406 26.066406 L 16.878906 26.160156 C 17.101562 26.277344 17.492188 26.386719 17.8125 26.425781 C 18.054688 26.457031 18.058594 26.460938 18.105469 26.648438 C 18.1875 26.957031 18.238281 27.046875 18.355469 27.105469 C 18.464844 27.15625 18.535156 27.140625 19.449219 26.878906 C 19.777344 26.789062 19.820312 26.699219 19.714844 26.308594 C 19.652344 26.046875 19.648438 26.011719 19.707031 25.972656 C 19.914062 25.863281 20.273438 25.53125 20.445312 25.304688 C 20.617188 25.082031 20.660156 25.050781 20.761719 25.074219 C 21.117188 25.152344 21.3125 25.15625 21.382812 25.085938 C 21.457031 25.007812 21.746094 24.027344 21.746094 23.835938 C 21.746094 23.679688 21.648438 23.605469 21.332031 23.515625 C 21.085938 23.445312 21.070312 23.4375 21.054688 23.28125 C 21.03125 23 20.953125 22.679688 20.832031 22.371094 L 20.710938 22.070312 L 20.925781 21.851562 C 21.0625 21.714844 21.140625 21.589844 21.140625 21.519531 C 21.140625 21.441406 21.007812 21.28125 20.683594 20.953125 C 20.136719 20.410156 20.082031 20.394531 19.738281 20.710938 C 19.519531 20.917969 19.511719 20.921875 19.378906 20.855469 C 19.148438 20.742188 18.777344 20.632812 18.476562 20.601562 L 18.179688 20.570312 L 18.101562 20.300781 C 18.058594 20.148438 17.996094 20 17.964844 19.964844 C 17.882812 19.867188 17.6875 19.878906 17.101562 20.039062 Z M 17.753906 20.414062 C 17.765625 20.5 17.804688 20.636719 17.828125 20.734375 L 17.875 20.902344 L 18.242188 20.9375 C 18.636719 20.96875 18.964844 21.066406 19.363281 21.265625 L 19.613281 21.390625 L 19.851562 21.152344 L 20.09375 20.917969 L 20.402344 21.234375 L 20.714844 21.542969 L 20.480469 21.785156 L 20.25 22.027344 L 20.386719 22.300781 C 20.566406 22.652344 20.660156 22.996094 20.703125 23.414062 L 20.730469 23.742188 L 21.050781 23.820312 C 21.230469 23.867188 21.375 23.90625 21.375 23.910156 C 21.375 23.941406 21.140625 24.742188 21.128906 24.757812 C 21.117188 24.765625 20.96875 24.734375 20.789062 24.683594 C 20.613281 24.632812 20.46875 24.59375 20.464844 24.601562 C 20.457031 24.609375 20.378906 24.730469 20.289062 24.867188 C 20.097656 25.164062 19.707031 25.546875 19.421875 25.710938 C 19.316406 25.769531 19.226562 25.839844 19.226562 25.867188 C 19.226562 25.890625 19.257812 26.03125 19.296875 26.167969 C 19.335938 26.308594 19.367188 26.449219 19.367188 26.476562 C 19.367188 26.542969 18.574219 26.746094 18.527344 26.695312 C 18.507812 26.675781 18.464844 26.550781 18.433594 26.425781 C 18.347656 26.109375 18.316406 26.078125 18.066406 26.078125 C 17.757812 26.078125 17.289062 25.957031 16.96875 25.796875 C 16.8125 25.71875 16.667969 25.660156 16.640625 25.660156 C 16.613281 25.660156 16.492188 25.757812 16.371094 25.875 L 16.148438 26.101562 L 15.835938 25.785156 L 15.515625 25.472656 L 15.742188 25.25 C 15.863281 25.128906 15.960938 25.003906 15.960938 24.964844 C 15.960938 24.933594 15.910156 24.820312 15.847656 24.714844 C 15.679688 24.417969 15.578125 24.050781 15.542969 23.640625 L 15.515625 23.269531 L 15.351562 23.226562 C 15.265625 23.207031 15.117188 23.167969 15.015625 23.144531 L 14.847656 23.101562 L 14.960938 22.703125 C 15.023438 22.480469 15.082031 22.289062 15.097656 22.273438 C 15.109375 22.261719 15.226562 22.273438 15.359375 22.300781 C 15.734375 22.390625 15.792969 22.375 15.902344 22.179688 C 16.066406 21.894531 16.367188 21.582031 16.6875 21.371094 C 16.851562 21.265625 16.988281 21.144531 16.988281 21.101562 C 16.988281 21.0625 16.953125 20.917969 16.910156 20.78125 C 16.875 20.648438 16.855469 20.523438 16.871094 20.507812 C 16.902344 20.476562 17.574219 20.277344 17.667969 20.269531 C 17.695312 20.265625 17.734375 20.332031 17.753906 20.414062 Z M 14.28125 25.007812 C 14.472656 25.058594 14.652344 25.109375 14.6875 25.125 C 14.722656 25.136719 14.722656 25.199219 14.671875 25.359375 C 14.558594 25.734375 14.578125 25.820312 14.808594 25.949219 C 15.0625 26.105469 15.417969 26.453125 15.625 26.761719 C 15.804688 27.035156 15.839844 27.042969 16.230469 26.941406 C 16.417969 26.890625 16.484375 26.886719 16.496094 26.925781 C 16.535156 27.042969 16.707031 27.691406 16.707031 27.710938 C 16.707031 27.726562 16.5625 27.777344 16.378906 27.824219 L 16.054688 27.90625 L 16.054688 28.117188 C 16.054688 28.460938 15.925781 28.949219 15.75 29.300781 L 15.585938 29.628906 L 15.828125 29.875 L 16.078125 30.121094 L 15.757812 30.433594 L 15.445312 30.75 L 15.222656 30.523438 C 15.101562 30.402344 14.964844 30.304688 14.925781 30.304688 C 14.886719 30.304688 14.761719 30.359375 14.648438 30.417969 C 14.378906 30.566406 14.003906 30.667969 13.578125 30.714844 L 13.234375 30.75 L 13.140625 31.050781 C 13.09375 31.21875 13.046875 31.363281 13.039062 31.367188 C 13.03125 31.378906 12.402344 31.226562 12.242188 31.167969 C 12.203125 31.152344 12.210938 31.058594 12.273438 30.8125 C 12.324219 30.628906 12.355469 30.46875 12.351562 30.46875 C 12.347656 30.46875 12.226562 30.390625 12.085938 30.300781 C 11.773438 30.097656 11.414062 29.742188 11.261719 29.480469 C 11.128906 29.257812 11.046875 29.238281 10.675781 29.355469 C 10.554688 29.386719 10.449219 29.40625 10.433594 29.386719 C 10.394531 29.3125 10.210938 28.582031 10.234375 28.558594 C 10.242188 28.542969 10.386719 28.5 10.550781 28.457031 L 10.851562 28.378906 L 10.882812 28.011719 C 10.921875 27.613281 11.007812 27.292969 11.179688 26.949219 C 11.242188 26.828125 11.292969 26.703125 11.292969 26.671875 C 11.292969 26.640625 11.195312 26.511719 11.074219 26.394531 L 10.851562 26.167969 L 11.167969 25.859375 L 11.480469 25.542969 L 11.726562 25.789062 L 11.976562 26.035156 L 12.183594 25.917969 C 12.496094 25.738281 12.917969 25.613281 13.324219 25.574219 C 13.730469 25.539062 13.695312 25.570312 13.8125 25.109375 C 13.839844 25.003906 13.878906 24.914062 13.898438 24.914062 C 13.914062 24.914062 14.089844 24.957031 14.28125 25.007812 Z M 14.28125 25.007812 "/>
<path style=" stroke:none;fill-rule:nonzero;fill:rgb(0%,0%,0%);fill-opacity:1;" d="M 17.578125 21.519531 C 16.605469 21.769531 15.921875 22.824219 16.089844 23.832031 C 16.199219 24.476562 16.652344 25.074219 17.238281 25.351562 C 18.246094 25.824219 19.472656 25.390625 19.953125 24.378906 C 20.449219 23.34375 20.011719 22.140625 18.960938 21.648438 C 18.683594 21.519531 18.585938 21.5 18.199219 21.488281 C 17.957031 21.484375 17.675781 21.5 17.578125 21.519531 Z M 18.890625 22.027344 C 20.128906 22.691406 20.066406 24.449219 18.785156 25.035156 C 17.953125 25.417969 16.953125 25.011719 16.558594 24.144531 C 16.476562 23.964844 16.453125 23.828125 16.449219 23.519531 C 16.449219 22.996094 16.597656 22.652344 16.992188 22.289062 C 17.375 21.941406 17.640625 21.84375 18.175781 21.859375 C 18.550781 21.875 18.628906 21.894531 18.890625 22.027344 Z M 18.890625 22.027344 "/>
<path style=" stroke:none;fill-rule:nonzero;fill:rgb(0%,0%,0%);fill-opacity:1;" d="M 12.804688 26.207031 C 12.257812 26.398438 11.867188 26.75 11.605469 27.285156 C 11.460938 27.574219 11.457031 27.609375 11.457031 28.144531 C 11.457031 28.675781 11.464844 28.71875 11.605469 29.019531 C 11.800781 29.421875 12.152344 29.777344 12.570312 29.980469 C 12.867188 30.125 12.945312 30.144531 13.367188 30.15625 C 13.757812 30.171875 13.882812 30.15625 14.117188 30.078125 C 14.742188 29.859375 15.222656 29.371094 15.40625 28.761719 C 15.554688 28.273438 15.515625 27.699219 15.308594 27.261719 C 15.105469 26.839844 14.757812 26.492188 14.339844 26.296875 C 14.054688 26.164062 13.972656 26.144531 13.535156 26.136719 C 13.152344 26.125 12.992188 26.140625 12.804688 26.207031 Z M 14.078125 26.597656 C 14.457031 26.738281 14.878906 27.160156 15.023438 27.539062 C 15.167969 27.917969 15.167969 28.371094 15.023438 28.75 C 14.902344 29.078125 14.511719 29.488281 14.183594 29.640625 C 13.5 29.957031 12.757812 29.820312 12.253906 29.285156 C 11.601562 28.585938 11.621094 27.605469 12.304688 26.957031 C 12.816406 26.46875 13.40625 26.347656 14.078125 26.597656 Z M 14.078125 26.597656 "/>
<path style=" stroke:none;fill-rule:nonzero;fill:rgb(0%,0%,0%);fill-opacity:1;" d="M 26.507812 33.652344 C 25.632812 33.753906 23.183594 34.375 21.910156 34.820312 C 21.558594 34.941406 21.398438 34.96875 20.945312 34.988281 L 20.394531 35.011719 L 20.394531 35.195312 C 20.394531 35.351562 20.359375 35.410156 20.164062 35.605469 C 19.914062 35.851562 19.863281 36.015625 19.9375 36.285156 C 19.96875 36.414062 19.96875 36.527344 19.925781 36.703125 C 19.894531 36.835938 19.878906 37.042969 19.890625 37.15625 C 19.917969 37.386719 20.121094 37.835938 20.253906 37.953125 C 20.34375 38.035156 21.871094 38.289062 21.992188 38.242188 C 22.078125 38.207031 22.105469 38 22.03125 37.957031 C 22.011719 37.945312 21.664062 37.878906 21.257812 37.8125 C 20.855469 37.75 20.503906 37.683594 20.480469 37.667969 C 20.386719 37.613281 20.242188 37.25 20.25 37.097656 C 20.257812 36.769531 20.285156 36.046875 20.296875 35.992188 C 20.296875 35.957031 20.394531 35.871094 20.511719 35.792969 C 20.664062 35.6875 20.71875 35.613281 20.71875 35.535156 C 20.71875 35.410156 20.746094 35.402344 21.1875 35.351562 C 21.328125 35.335938 21.84375 35.195312 22.328125 35.042969 C 24.578125 34.332031 26.1875 33.984375 27.214844 33.980469 C 28.046875 33.980469 29.109375 34.269531 30.214844 34.8125 C 30.574219 34.988281 30.910156 35.144531 30.964844 35.164062 C 31.015625 35.183594 31.59375 35.214844 32.246094 35.238281 C 32.980469 35.257812 33.601562 35.304688 33.855469 35.351562 C 34.480469 35.460938 35.933594 35.84375 36.007812 35.917969 C 36.125 36.03125 36.179688 36.367188 36.179688 36.898438 C 36.179688 37.296875 36.160156 37.441406 36.109375 37.492188 C 36.046875 37.5625 35.070312 37.753906 35.023438 37.707031 C 35.007812 37.691406 35 37.570312 35 37.441406 C 35 36.925781 34.757812 36.539062 34.289062 36.308594 C 33.757812 36.042969 33.15625 36.140625 32.75 36.5625 C 32.507812 36.820312 32.417969 37.050781 32.417969 37.457031 C 32.425781 38.226562 32.933594 38.730469 33.710938 38.734375 C 34.128906 38.734375 34.308594 38.660156 34.660156 38.335938 L 34.933594 38.082031 L 35.425781 38.027344 C 35.691406 38 36.027344 37.949219 36.167969 37.914062 C 36.460938 37.851562 36.453125 37.871094 36.542969 37.117188 C 36.660156 36.148438 36.644531 35.808594 36.46875 35.636719 C 36.398438 35.566406 35.871094 35.394531 35.234375 35.234375 C 34.289062 34.992188 33.976562 34.953125 32.597656 34.902344 L 31.242188 34.851562 L 30.472656 34.484375 C 29.601562 34.078125 29.074219 33.886719 28.398438 33.75 C 27.847656 33.644531 26.996094 33.597656 26.507812 33.652344 Z M 34.050781 36.585938 C 34.273438 36.664062 34.527344 36.953125 34.601562 37.199219 C 34.804688 37.878906 34.164062 38.539062 33.480469 38.347656 C 33.089844 38.238281 32.761719 37.824219 32.761719 37.4375 C 32.761719 37.289062 32.851562 37.039062 32.976562 36.878906 C 33.1875 36.589844 33.699219 36.453125 34.050781 36.585938 Z M 34.050781 36.585938 "/>
<path style=" stroke:none;fill-rule:nonzero;fill:rgb(0%,0%,0%);fill-opacity:1;" d="M 23.941406 34.746094 C 23.894531 34.800781 23.894531 34.847656 23.929688 34.925781 C 23.988281 35.050781 23.988281 35.050781 24.601562 35.183594 C 25.03125 35.277344 25.210938 35.28125 27.738281 35.28125 C 30.398438 35.28125 30.421875 35.28125 30.449219 35.1875 C 30.523438 34.949219 30.558594 34.953125 27.832031 34.953125 C 25.226562 34.953125 24.8125 34.929688 24.328125 34.765625 C 24.011719 34.65625 24.015625 34.65625 23.941406 34.746094 Z M 23.941406 34.746094 "/>
<path style=" stroke:none;fill-rule:nonzero;fill:rgb(0%,0%,0%);fill-opacity:1;" d="M 21.078125 35.585938 C 21.0625 35.605469 21.046875 35.679688 21.046875 35.75 C 21.046875 35.90625 21.128906 35.929688 21.675781 35.925781 C 22.242188 35.921875 22.328125 35.894531 22.328125 35.722656 L 22.328125 35.582031 L 21.71875 35.566406 C 21.386719 35.5625 21.097656 35.574219 21.078125 35.585938 Z M 21.078125 35.585938 "/>
<path style=" stroke:none;fill-rule:nonzero;fill:rgb(0%,0%,0%);fill-opacity:1;" d="M 22.980469 36.246094 C 22.480469 36.480469 22.214844 36.898438 22.214844 37.441406 C 22.214844 38.203125 22.742188 38.730469 23.496094 38.730469 C 24.015625 38.730469 24.457031 38.464844 24.667969 38.027344 C 24.796875 37.773438 24.8125 37.203125 24.699219 36.949219 C 24.574219 36.671875 24.394531 36.464844 24.136719 36.316406 C 23.851562 36.148438 23.269531 36.113281 22.980469 36.246094 Z M 24.019531 36.6875 C 24.507812 37.027344 24.570312 37.675781 24.148438 38.09375 C 23.597656 38.644531 22.722656 38.355469 22.574219 37.570312 C 22.507812 37.230469 22.777344 36.753906 23.125 36.59375 C 23.351562 36.492188 23.800781 36.539062 24.019531 36.6875 Z M 24.019531 36.6875 "/>
<path style=" stroke:none;fill-rule:nonzero;fill:rgb(0%,0%,0%);fill-opacity:1;" d="M 26.089844 36.941406 C 25.742188 37.222656 25.675781 37.371094 25.847656 37.464844 C 25.910156 37.492188 26.945312 37.511719 28.882812 37.511719 C 31.492188 37.511719 31.828125 37.503906 31.890625 37.4375 C 31.933594 37.398438 31.964844 37.339844 31.964844 37.308594 C 31.964844 37.144531 31.902344 37.140625 29.179688 37.140625 C 27.679688 37.140625 26.507812 37.121094 26.507812 37.097656 C 26.507812 37.074219 26.539062 37.03125 26.578125 37 C 26.699219 36.898438 26.632812 36.675781 26.480469 36.675781 C 26.449219 36.675781 26.273438 36.796875 26.089844 36.941406 Z M 26.089844 36.941406 "/>
<path style=" stroke:none;fill-rule:nonzero;fill:rgb(0%,0%,0%);fill-opacity:1;" d="M 24.941406 37.976562 C 24.890625 38.058594 24.964844 38.207031 25.074219 38.230469 C 25.128906 38.246094 26.773438 38.25 28.722656 38.246094 L 32.269531 38.230469 L 32.269531 37.953125 L 28.621094 37.9375 C 26.1875 37.933594 24.960938 37.945312 24.941406 37.976562 Z M 24.941406 37.976562 "/>
<path style=" stroke:none;fill-rule:nonzero;fill:rgb(0%,0%,0%);fill-opacity:1;" d="M 8.679688 54.871094 L 8.679688 63.078125 L 10.734375 63.078125 L 10.734375 56.167969 L 11.273438 55.394531 L 11.816406 54.613281 L 12.175781 55.117188 C 12.371094 55.398438 13.707031 57.304688 15.144531 59.347656 L 17.757812 63.078125 L 20.164062 63.078125 L 20.015625 62.863281 C 19.9375 62.742188 18.34375 60.476562 16.488281 57.828125 C 14.625 55.179688 13.09375 52.988281 13.082031 52.957031 C 13.066406 52.929688 14.027344 51.507812 15.214844 49.796875 L 17.371094 46.691406 L 16.207031 46.675781 C 15.574219 46.671875 15.03125 46.671875 15.003906 46.6875 C 14.980469 46.695312 14.015625 48.054688 12.855469 49.703125 L 10.757812 52.707031 L 10.742188 49.691406 L 10.734375 46.667969 L 8.679688 46.667969 Z M 8.679688 54.871094 "/>
<path style=" stroke:none;fill-rule:nonzero;fill:rgb(0%,0%,0%);fill-opacity:1;" d="M 21.328125 54.871094 L 21.328125 63.078125 L 23.378906 63.078125 L 23.378906 56.140625 L 23.898438 55.402344 C 24.1875 54.996094 24.433594 54.664062 24.453125 54.664062 C 24.472656 54.664062 25.816406 56.554688 27.441406 58.871094 L 30.394531 63.078125 L 32.800781 63.078125 L 31.980469 61.902344 C 31.527344 61.257812 29.933594 58.984375 28.433594 56.851562 C 26.9375 54.722656 25.703125 52.960938 25.699219 52.945312 C 25.695312 52.925781 26.648438 51.535156 27.8125 49.851562 C 28.980469 48.167969 29.957031 46.765625 29.972656 46.730469 C 30.007812 46.675781 29.796875 46.667969 28.808594 46.667969 L 27.601562 46.671875 L 25.492188 49.699219 L 23.378906 52.71875 L 23.378906 46.667969 L 21.328125 46.667969 Z M 21.328125 54.871094 "/>
<path style=" stroke:none;fill-rule:nonzero;fill:rgb(0%,0%,0%);fill-opacity:1;" d="M 33.738281 54.871094 L 33.738281 63.078125 L 35.792969 63.078125 L 35.800781 56.40625 L 35.816406 49.730469 L 38.476562 53.203125 C 39.941406 55.113281 41.160156 56.707031 41.1875 56.746094 C 41.226562 56.796875 41.804688 56.066406 43.941406 53.273438 L 46.644531 49.734375 L 46.667969 63.078125 L 48.71875 63.078125 L 48.71875 46.667969 L 46.503906 46.667969 L 43.890625 50.089844 C 42.453125 51.972656 41.261719 53.515625 41.25 53.523438 C 41.234375 53.535156 40.039062 51.996094 38.589844 50.109375 L 35.957031 46.667969 L 33.738281 46.667969 Z M 33.738281 54.871094 "/>
<path style=" stroke:none;fill-rule:nonzero;fill:rgb(0%,0%,0%);fill-opacity:1;" d="M 46.632812 65.703125 C 46.003906 65.835938 45.476562 66.265625 45.191406 66.863281 C 44.875 67.519531 44.925781 68.328125 45.308594 68.925781 C 45.730469 69.5625 46.367188 69.910156 47.132812 69.910156 C 48.433594 69.90625 49.421875 68.765625 49.238281 67.464844 C 49.113281 66.582031 48.375 65.824219 47.507812 65.683594 C 47.128906 65.625 46.996094 65.625 46.632812 65.703125 Z M 47.902344 66.046875 C 48.898438 66.507812 49.316406 67.683594 48.832031 68.640625 C 48.667969 68.960938 48.234375 69.371094 47.894531 69.523438 C 47.535156 69.691406 46.9375 69.726562 46.570312 69.605469 C 46.046875 69.441406 45.621094 69.066406 45.375 68.566406 C 45.257812 68.328125 45.242188 68.257812 45.242188 67.792969 C 45.242188 67.328125 45.257812 67.253906 45.378906 66.996094 C 45.519531 66.6875 45.953125 66.226562 46.234375 66.078125 C 46.730469 65.824219 47.398438 65.808594 47.902344 66.046875 Z M 47.902344 66.046875 "/>
<path style=" stroke:none;fill-rule:nonzero;fill:rgb(0%,0%,0%);fill-opacity:1;" d="M 9.199219 67.769531 C 8.789062 68.894531 8.445312 69.824219 8.445312 69.839844 C 8.445312 69.855469 8.496094 69.863281 8.558594 69.863281 C 8.648438 69.863281 8.6875 69.820312 8.746094 69.664062 C 8.789062 69.554688 8.941406 69.144531 9.089844 68.746094 L 9.355469 68.027344 L 10.804688 68.027344 L 11.132812 68.933594 C 11.453125 69.792969 11.476562 69.839844 11.597656 69.855469 C 11.703125 69.867188 11.722656 69.859375 11.695312 69.785156 C 11.675781 69.738281 11.367188 68.894531 11.007812 67.910156 C 10.648438 66.925781 10.324219 66.03125 10.28125 65.921875 C 10.21875 65.757812 10.1875 65.726562 10.078125 65.726562 C 9.953125 65.726562 9.941406 65.761719 9.199219 67.769531 Z M 10.398438 66.902344 C 10.554688 67.339844 10.6875 67.730469 10.6875 67.757812 C 10.6875 67.804688 10.53125 67.816406 10.078125 67.816406 C 9.628906 67.816406 9.472656 67.804688 9.472656 67.757812 C 9.472656 67.679688 10.050781 66.097656 10.078125 66.097656 C 10.09375 66.097656 10.234375 66.460938 10.398438 66.902344 Z M 10.398438 66.902344 "/>
<path style=" stroke:none;fill-rule:nonzero;fill:rgb(0%,0%,0%);fill-opacity:1;" d="M 21.195312 67.339844 C 21.210938 68.914062 21.214844 68.960938 21.316406 69.152344 C 21.574219 69.640625 21.984375 69.882812 22.539062 69.882812 C 23.117188 69.882812 23.539062 69.617188 23.78125 69.101562 C 23.894531 68.863281 23.894531 68.851562 23.894531 67.292969 C 23.894531 65.777344 23.886719 65.726562 23.804688 65.726562 C 23.714844 65.726562 23.710938 65.78125 23.699219 67.246094 C 23.683594 68.984375 23.675781 69.015625 23.277344 69.382812 C 22.84375 69.78125 22.238281 69.78125 21.800781 69.382812 C 21.425781 69.035156 21.421875 69.03125 21.421875 67.269531 L 21.421875 65.726562 L 21.183594 65.726562 Z M 21.195312 67.339844 "/>
<path style=" stroke:none;fill-rule:nonzero;fill:rgb(0%,0%,0%);fill-opacity:1;" d="M 33.460938 65.820312 C 33.460938 65.902344 33.496094 65.910156 33.988281 65.921875 L 34.511719 65.933594 L 34.523438 67.898438 C 34.535156 69.824219 34.539062 69.863281 34.625 69.863281 C 34.71875 69.863281 34.71875 69.832031 34.71875 67.886719 L 34.71875 65.910156 L 35.257812 65.910156 C 35.761719 65.910156 35.792969 65.90625 35.792969 65.820312 C 35.792969 65.730469 35.761719 65.726562 34.625 65.726562 C 33.496094 65.726562 33.460938 65.730469 33.460938 65.820312 Z M 33.460938 65.820312 "/>
</g>
</svg>
