<?xml version="1.0" standalone="no"?>
<!DOCTYPE svg PUBLIC "-//W3C//DTD SVG 20010904//EN"
 "http://www.w3.org/TR/2001/REC-SVG-20010904/DTD/svg10.dtd">
<svg version="1.0" xmlns="http://www.w3.org/2000/svg"
 width="1200.000000pt" height="1592.000000pt" viewBox="0 0 1200.000000 1592.000000"
 preserveAspectRatio="xMidYMid meet">

<g transform="translate(0.000000,1592.000000) scale(0.100000,-0.100000)"
fill="#000000" stroke="none">
<path d="M0 7960 l0 -7960 6000 0 6000 0 0 7960 0 7960 -6000 0 -6000 0 0
-7960z m11920 0 l0 -7880 -5920 0 -5920 0 0 7880 0 7880 5920 0 5920 0 0
-7880z"/>
<path d="M2220 14535 l-34 -36 1872 -1872 1872 -1872 -1872 -1872 -1873 -1873
33 -32 32 -33 1873 1873 1872 1872 1872 -1872 1872 -1872 31 29 c16 16 30 33
30 39 0 5 -840 850 -1867 1878 l-1868 1868 1870 1870 1870 1870 -33 32 -32 33
-1870 -1870 -1870 -1870 -1873 1873 -1873 1873 -34 -36z"/>
<path d="M5181 14390 c-30 -11 -72 -31 -93 -45 -32 -21 -39 -31 -36 -53 3 -25
15 -31 160 -87 86 -34 163 -67 172 -74 23 -19 21 -108 -4 -173 -24 -64 -74
-128 -100 -128 -11 0 -85 25 -165 55 -79 30 -158 55 -175 55 -28 0 -30 -2 -30
-37 0 -78 85 -207 182 -279 79 -58 154 -84 272 -95 55 -5 118 -18 140 -28 23
-10 82 -57 131 -104 l90 -86 -130 -131 c-160 -162 -185 -178 -301 -190 -145
-16 -186 -30 -263 -89 -71 -54 -144 -204 -126 -260 10 -32 46 -26 136 24 45
25 91 45 103 45 23 0 144 -71 157 -92 15 -23 10 -171 -6 -195 -8 -12 -48 -39
-88 -61 -84 -46 -101 -63 -92 -91 12 -39 135 -61 230 -41 148 30 256 138 294
294 24 98 67 153 265 339 l124 117 136 -131 c153 -147 194 -205 256 -362 51
-128 95 -183 181 -226 79 -39 148 -47 230 -27 235 60 334 327 197 532 -40 59
-102 103 -200 139 -130 49 -176 82 -335 239 -84 82 -153 155 -153 161 0 19
191 199 231 217 19 10 81 22 137 27 119 11 187 38 256 101 76 70 128 182 112
243 -6 24 -10 26 -34 21 -15 -4 -66 -27 -114 -52 l-87 -46 -43 21 c-24 11 -62
35 -85 52 l-43 31 0 90 c0 106 0 106 110 167 41 23 81 50 87 62 11 17 9 23
-13 40 -55 43 -215 41 -305 -3 -104 -52 -164 -127 -206 -259 -34 -105 -56
-137 -200 -280 l-119 -118 -93 96 c-102 105 -128 152 -155 275 -40 185 -47
206 -84 260 -67 99 -183 151 -352 157 -87 3 -114 0 -159 -17z m230 -64 c86
-19 157 -55 199 -102 40 -47 56 -82 70 -166 31 -178 -85 -400 -232 -443 -77
-22 -181 -3 -274 52 -61 35 -176 163 -146 163 4 0 54 -18 111 -40 135 -53 168
-53 226 1 66 61 105 148 112 248 9 133 -7 154 -172 215 -55 21 -104 41 -109
46 -8 8 34 23 94 33 44 8 54 7 121 -7z m1259 -118 c-65 -45 -75 -68 -78 -191
-4 -138 4 -154 112 -221 93 -58 135 -66 201 -37 26 11 49 21 51 21 12 0 -1
-21 -36 -58 -61 -63 -107 -82 -224 -93 -142 -13 -199 -42 -320 -159 l-95 -92
-28 20 c-15 11 -59 52 -98 91 l-70 71 117 118 c153 154 182 195 213 296 31
101 71 167 124 202 46 30 105 53 140 54 22 0 22 -1 -9 -22z m-897 -432 c44
-67 749 -788 817 -836 27 -19 49 -37 50 -40 0 -3 -20 -16 -45 -29 -59 -31
-113 -87 -145 -151 l-26 -51 -47 68 c-27 40 -205 229 -429 456 l-383 389 32
24 c38 29 109 135 125 187 6 20 12 37 13 37 1 0 18 -24 38 -54z m33 -889
c-166 -172 -219 -243 -237 -312 -39 -156 -126 -248 -254 -269 -34 -5 -37 -4
-21 7 84 56 96 82 96 214 0 124 -12 146 -118 213 -65 42 -85 50 -125 50 -28 0
-64 -8 -87 -20 -49 -25 -50 -16 -5 38 53 62 123 91 238 101 144 12 191 39 351
200 l129 130 97 -92 97 -92 -161 -168z m1027 -69 c43 -13 147 -101 134 -114
-4 -4 -28 15 -54 41 -40 42 -54 50 -97 56 -28 4 -64 11 -79 15 -21 5 -36 1
-58 -15 -28 -21 -109 -55 -109 -46 0 9 65 49 99 61 46 17 112 17 164 2z m-277
-108 c-6 -31 -46 -93 -54 -85 -6 5 47 115 55 115 3 0 3 -14 -1 -30z m306 -31
c24 -25 38 -49 39 -67 0 -15 4 -36 8 -47 6 -14 0 -36 -17 -70 -19 -40 -34 -54
-71 -72 -42 -20 -51 -21 -98 -10 -113 26 -158 124 -106 229 32 65 78 90 153
82 46 -5 60 -12 92 -45z m144 -85 l4 -59 -14 35 c-17 42 -21 109 -5 93 5 -5
12 -37 15 -69z m-487 -47 c6 -19 7 -44 2 -62 -8 -29 -8 -28 -19 23 -7 29 -12
60 -12 68 0 24 18 7 29 -29z m472 -78 c-24 -69 -99 -139 -166 -155 l-30 -7 32
26 c17 15 45 30 62 33 32 7 61 37 61 63 0 16 42 82 48 76 3 -2 -1 -18 -7 -36z
m-391 -88 c27 -34 38 -39 85 -44 29 -3 66 -13 82 -22 28 -16 28 -16 -28 -11
-70 5 -124 32 -172 85 -20 23 -37 43 -37 46 0 14 42 -19 70 -54z"/>
<path d="M9040 11884 c-550 -50 -972 -465 -1031 -1014 -20 -179 9 -376 80
-548 122 -295 379 -534 685 -636 261 -88 584 -69 833 49 499 236 754 785 613
1320 -25 94 -101 257 -160 345 -160 235 -434 414 -714 465 -90 16 -236 25
-306 19z m58 -119 c30 -50 45 -59 73 -45 23 13 24 22 4 60 -15 29 -15 30 8 30
13 0 68 -7 123 -15 84 -12 102 -18 122 -40 12 -14 22 -38 22 -53 0 -38 13 -54
41 -50 20 2 25 10 27 41 2 20 8 37 15 37 13 0 185 -96 208 -117 14 -11 16 -26
12 -73 -5 -51 -3 -61 12 -66 22 -9 49 7 53 32 2 10 7 23 11 27 5 4 47 -37 95
-93 l88 -101 -28 -53 c-24 -46 -26 -56 -15 -70 20 -24 48 -19 67 10 9 14 20
21 25 17 11 -12 89 -215 89 -234 0 -9 -16 -29 -35 -43 -26 -20 -35 -35 -35
-55 0 -38 26 -48 61 -22 15 11 29 17 33 14 3 -4 6 -64 6 -135 l0 -129 -56 -25
c-50 -22 -55 -27 -52 -52 3 -25 6 -27 46 -25 30 1 42 -2 39 -10 -2 -7 -21 -63
-41 -125 -41 -121 -38 -119 -121 -124 -37 -3 -40 -5 -40 -33 0 -27 4 -30 33
-33 17 -2 32 -7 32 -12 0 -11 -160 -205 -169 -205 -3 0 -27 6 -53 14 -57 16
-78 10 -78 -24 0 -20 8 -29 31 -39 l31 -13 -28 -20 c-16 -11 -68 -43 -117 -72
l-87 -52 -37 30 c-22 18 -49 31 -65 31 -24 0 -28 -4 -28 -29 0 -19 8 -35 22
-45 12 -9 20 -17 17 -20 -10 -9 -190 -46 -227 -46 -37 0 -43 4 -69 43 -21 30
-36 42 -53 42 -20 0 -26 -6 -28 -28 -2 -16 2 -35 9 -43 6 -8 10 -17 7 -19 -3
-3 -58 3 -123 13 -104 17 -121 22 -142 46 -13 15 -23 40 -23 55 0 34 -22 55
-49 46 -15 -4 -21 -16 -23 -45 l-3 -40 -115 64 -115 64 3 65 c3 53 1 65 -13
71 -25 9 -55 -12 -55 -39 0 -45 -5 -41 -173 152 -19 21 -18 22 8 67 32 55 27
86 -14 86 -20 0 -31 -7 -40 -27 -7 -14 -16 -22 -20 -17 -4 5 -27 62 -51 127
l-43 118 43 44 c28 29 41 49 37 59 -10 26 -38 31 -69 13 -38 -22 -39 -17 -36
129 l3 119 50 25 c33 16 51 32 53 46 4 31 -19 45 -57 34 -32 -9 -32 -9 -26 20
3 16 23 73 43 127 l37 98 40 3 c65 4 83 11 90 33 9 27 -11 49 -46 49 -16 0
-29 3 -29 6 0 3 37 51 82 106 79 96 83 99 112 92 17 -4 47 -7 66 -8 30 -1 35
2 38 24 2 21 -4 29 -29 41 l-31 15 59 41 c65 45 156 93 175 93 7 -1 29 -14 48
-30 40 -35 65 -38 80 -11 14 27 14 27 -17 55 l-26 24 39 11 c66 17 128 30 159
34 73 9 75 9 103 -38z"/>
<path d="M9013 11369 c-173 -29 -355 -166 -436 -328 -51 -102 -71 -202 -64
-320 15 -250 164 -453 403 -548 64 -25 80 -28 214 -28 140 0 147 1 225 33 149
60 266 168 334 308 48 99 64 181 58 304 -8 173 -66 299 -194 420 -144 137
-335 193 -540 159z m220 -75 c15 -5 16 -12 10 -57 -37 -245 62 -332 274 -241
70 30 87 34 94 23 22 -34 51 -128 52 -169 l2 -44 -47 -7 c-145 -22 -228 -82
-228 -167 0 -41 42 -119 99 -183 l50 -56 -32 -31 c-37 -35 -136 -102 -152
-102 -5 0 -25 29 -43 64 -59 114 -133 165 -213 149 -43 -8 -115 -82 -155 -157
-16 -31 -34 -56 -39 -56 -16 0 -116 67 -152 103 l-33 31 56 58 c93 97 116 188
67 257 -28 38 -116 79 -185 87 -38 4 -62 12 -65 21 -8 21 14 110 42 170 l24
53 34 -20 c48 -29 145 -60 184 -60 47 0 98 23 118 54 27 41 34 93 25 184 -5
48 -7 88 -4 91 17 17 162 21 217 5z m-284 -142 c1 -66 -2 -75 -25 -99 -21 -20
-32 -24 -59 -20 -41 7 -155 56 -155 67 0 17 122 119 172 144 l53 27 7 -23 c3
-13 6 -56 7 -96z m474 67 c38 -26 127 -110 127 -120 0 -10 -145 -69 -170 -69
-11 0 -32 11 -45 25 -21 21 -25 33 -25 88 0 36 3 78 6 95 l6 31 35 -14 c19 -8
49 -24 66 -36z m-712 -515 c46 -15 71 -34 82 -65 9 -28 -29 -94 -77 -134 -45
-36 -47 -37 -61 -19 -20 26 -54 130 -64 194 l-8 52 41 -6 c22 -4 62 -13 87
-22z m961 -19 c-5 -50 -37 -150 -64 -193 -20 -32 -21 -33 -41 -15 -50 45 -97
115 -97 147 0 43 25 64 102 87 92 26 104 23 100 -26z m-485 -313 c31 -31 88
-130 80 -139 -29 -28 -245 -28 -274 1 -7 7 42 89 79 131 38 44 75 46 115 7z"/>
<path d="M9106 11074 c-9 -8 -16 -19 -16 -24 0 -9 28 -40 36 -40 17 0 44 23
44 38 0 38 -37 53 -64 26z"/>
<path d="M9042 10929 c-123 -62 -137 -241 -26 -326 31 -23 49 -28 108 -31 82
-4 115 11 162 73 39 52 46 143 15 203 -46 90 -168 128 -259 81z m155 -75 c61
-39 67 -128 12 -180 -25 -24 -39 -29 -79 -29 -40 0 -54 5 -79 29 -40 39 -49
84 -25 133 33 67 109 88 171 47z"/>
<path d="M8820 10851 c0 -34 31 -51 56 -30 26 22 13 54 -23 57 -31 3 -33 1
-33 -27z"/>
<path d="M9375 10860 c-14 -43 44 -69 65 -31 15 29 2 51 -30 51 -20 0 -31 -6
-35 -20z"/>
<path d="M8930 10545 c-19 -23 -3 -55 30 -55 32 0 45 22 30 51 -13 23 -43 25
-60 4z"/>
<path d="M9283 10553 c-7 -2 -13 -18 -13 -34 0 -26 3 -29 30 -29 34 0 49 23
33 49 -11 17 -30 23 -50 14z"/>
<path d="M3665 11609 c-60 -17 -116 -36 -124 -42 -13 -11 -11 -67 5 -138 5
-23 0 -31 -38 -57 -43 -29 -99 -86 -148 -150 l-25 -32 -53 16 c-100 30 -108
20 -158 -173 -27 -107 -27 -113 -11 -131 10 -11 45 -27 77 -36 50 -14 60 -21
60 -39 0 -40 29 -160 52 -214 l21 -52 -41 -45 c-49 -54 -55 -95 -19 -135 l22
-25 -35 24 c-19 13 -36 24 -37 25 -1 0 4 25 12 55 18 67 18 82 3 103 -15 19
-221 77 -273 77 -39 0 -58 -25 -70 -92 -9 -48 -18 -54 -90 -61 -33 -2 -96 -19
-140 -36 l-80 -31 -45 45 c-67 66 -78 63 -193 -53 -116 -116 -119 -129 -53
-199 l43 -47 -23 -52 c-12 -28 -28 -80 -34 -115 -23 -127 -19 -119 -87 -140
-88 -28 -90 -34 -52 -182 17 -67 38 -132 46 -144 16 -27 47 -29 114 -9 l46 14
49 -61 c27 -34 74 -81 104 -106 59 -48 59 -48 45 -146 -6 -40 -4 -53 8 -63 21
-18 224 -71 270 -72 34 0 40 4 52 33 7 17 16 49 20 70 8 40 2 38 115 55 36 5
93 21 126 34 l61 25 46 -44 c70 -66 83 -62 200 55 114 115 117 126 52 192
l-45 45 31 79 c18 46 33 107 36 147 l6 68 71 23 c67 22 71 25 74 55 2 18 -11
87 -29 153 -37 142 -46 151 -127 132 -26 -6 -54 -13 -62 -16 -10 -4 -23 7 -39
32 l-24 37 25 -22 c39 -37 75 -30 129 23 l46 46 40 -20 c48 -25 131 -49 200
-57 52 -7 53 -8 63 -48 17 -66 28 -86 53 -98 24 -11 39 -8 235 48 70 20 79 39
57 123 -14 56 -15 64 -2 72 44 24 121 95 158 144 37 48 46 55 68 50 76 -17
118 -18 133 -3 16 17 78 228 78 269 0 34 -21 50 -89 69 -53 15 -56 17 -59 50
-5 61 -22 130 -48 196 l-26 65 46 47 c29 29 46 56 46 71 0 17 -28 52 -98 122
-117 117 -129 120 -202 52 -47 -44 -49 -45 -77 -31 -50 25 -129 48 -194 55
l-63 7 -17 58 c-9 32 -23 64 -29 72 -18 21 -60 18 -185 -16z m139 -81 c3 -18
11 -48 16 -69 l10 -36 79 -7 c85 -7 155 -28 240 -71 l54 -27 51 51 52 51 66
-68 67 -67 -50 -52 -50 -52 30 -59 c38 -75 58 -149 67 -239 l6 -71 69 -17 c38
-10 69 -18 69 -19 0 -7 -50 -179 -52 -182 -3 -2 -35 5 -73 16 -38 11 -69 19
-70 17 -1 -1 -18 -27 -37 -57 -41 -64 -125 -146 -186 -181 -23 -13 -42 -28
-42 -34 0 -5 7 -35 15 -65 8 -30 15 -60 15 -66 0 -14 -170 -58 -180 -47 -4 4
-13 31 -20 58 -18 68 -25 75 -79 75 -66 0 -166 26 -235 60 -33 17 -64 30 -70
30 -6 0 -32 -21 -58 -47 l-48 -48 -67 68 -68 67 48 48 c26 26 47 53 47 61 0 7
-11 31 -24 54 -36 64 -58 143 -65 231 l-6 80 -35 9 c-19 4 -51 13 -72 18 l-36
9 24 86 c13 48 26 89 29 92 3 3 28 0 56 -6 81 -19 93 -16 117 26 35 62 99 129
168 174 35 23 64 49 64 58 0 9 -7 40 -16 69 -8 29 -12 56 -9 59 7 7 151 50
171 51 6 1 14 -13 18 -31z m-744 -988 c41 -11 80 -22 87 -25 8 -3 8 -16 -3
-51 -24 -80 -20 -99 29 -127 55 -33 131 -108 175 -174 39 -59 46 -61 130 -39
40 11 54 12 57 3 8 -25 45 -164 45 -169 0 -3 -31 -14 -70 -24 l-70 -18 0 -45
c0 -74 -27 -179 -65 -255 l-35 -70 52 -53 53 -53 -68 -67 -67 -68 -48 48 c-26
26 -55 47 -64 47 -8 0 -35 -11 -59 -24 -58 -32 -138 -54 -229 -64 l-74 -7 -20
-65 c-10 -36 -20 -67 -22 -68 -2 -3 -136 30 -171 43 -8 3 -6 23 7 76 11 40 18
74 17 74 -1 0 -27 17 -57 36 -67 44 -144 120 -177 177 -28 48 -46 52 -125 27
-26 -7 -49 -11 -52 -7 -9 16 -48 173 -43 178 2 3 33 13 68 22 l64 17 7 79 c8
85 27 154 64 228 13 26 24 53 24 60 0 7 -21 34 -47 60 l-48 48 68 67 67 68 53
-53 53 -53 45 25 c67 39 157 66 244 74 87 8 80 1 105 100 6 23 14 42 18 42 4
0 41 -9 82 -20z"/>
<path d="M3767 11290 c-209 -53 -355 -280 -319 -497 23 -139 120 -267 246
-327 216 -102 479 -8 582 209 106 223 12 482 -213 588 -59 27 -80 32 -163 34
-52 1 -112 -2 -133 -7z m281 -109 c265 -143 252 -521 -23 -647 -178 -82 -392
5 -477 192 -17 38 -22 68 -23 134 0 113 32 187 116 265 82 75 139 96 254 92
80 -3 97 -7 153 -36z"/>
<path d="M2744 10282 c-117 -41 -201 -117 -257 -232 -31 -62 -32 -70 -32 -185
0 -114 2 -123 32 -188 42 -87 117 -163 207 -207 63 -31 80 -35 170 -38 84 -3
111 0 161 17 134 47 237 152 276 283 32 105 24 229 -21 323 -43 91 -118 166
-207 208 -61 28 -79 32 -173 34 -82 3 -116 -1 -156 -15z m273 -84 c81 -30 171
-121 202 -203 31 -81 31 -179 0 -260 -26 -71 -109 -159 -180 -192 -146 -68
-305 -38 -413 77 -140 150 -136 361 11 501 109 105 236 131 380 77z"/>
<path d="M5680 8680 c-187 -22 -712 -155 -985 -251 -75 -26 -110 -32 -207 -36
l-118 -5 0 -40 c0 -33 -7 -46 -49 -88 -54 -53 -65 -88 -49 -146 7 -28 7 -52
-2 -90 -7 -29 -10 -73 -8 -98 6 -49 50 -146 78 -171 19 -18 347 -72 373 -62
18 7 24 52 8 61 -4 3 -79 17 -166 31 -86 14 -161 28 -166 31 -20 12 -51 90
-50 123 2 71 8 226 10 238 0 7 21 26 46 43 33 22 45 38 45 55 0 27 6 29 100
40 30 3 141 33 245 66 482 153 827 228 1047 229 178 0 406 -63 643 -179 77
-38 149 -72 160 -76 11 -4 135 -11 275 -16 157 -4 290 -14 345 -24 134 -24
445 -106 461 -122 25 -25 37 -97 37 -211 0 -86 -4 -117 -15 -128 -14 -15 -223
-56 -233 -46 -3 3 -5 29 -5 57 0 111 -52 194 -152 244 -114 57 -243 36 -330
-55 -52 -55 -71 -105 -71 -192 1 -166 110 -274 277 -275 89 0 128 16 203 86
l59 54 105 12 c57 6 129 17 159 24 63 14 61 10 81 172 25 208 21 281 -16 318
-15 15 -128 52 -265 87 -202 52 -269 60 -565 71 l-290 11 -165 79 c-187 88
-300 129 -445 158 -118 23 -300 33 -405 21z m1617 -631 c47 -17 102 -79 118
-132 43 -146 -94 -288 -241 -247 -83 24 -154 113 -154 196 0 32 20 86 46 120
46 62 155 92 231 63z"/>
<path d="M5130 8445 c-10 -12 -10 -22 -2 -39 12 -27 12 -27 144 -55 92 -20
130 -21 672 -21 570 0 575 0 581 20 16 51 23 50 -561 50 -558 0 -647 5 -751
41 -68 23 -67 23 -83 4z"/>
<path d="M4517 8264 c-4 -4 -7 -20 -7 -35 0 -34 18 -39 135 -38 121 1 140 7
140 44 l0 30 -131 3 c-71 1 -133 -1 -137 -4z"/>
<path d="M4924 8122 c-107 -50 -164 -140 -164 -257 0 -164 113 -277 275 -277
111 0 206 57 251 151 28 55 31 177 7 232 -27 60 -66 104 -121 136 -61 36 -186
44 -248 15z m223 -95 c105 -73 118 -212 28 -302 -118 -119 -306 -57 -338 112
-14 73 44 176 118 210 49 22 145 12 192 -20z"/>
<path d="M5591 7973 c-75 -61 -89 -93 -52 -113 13 -6 235 -10 650 -10 559 0
631 2 645 16 9 8 16 21 16 28 0 35 -14 36 -597 36 -322 0 -573 4 -573 9 0 5 7
14 15 21 26 22 12 70 -21 70 -6 0 -44 -26 -83 -57z"/>
<path d="M5345 7750 c-11 -18 5 -50 28 -55 12 -3 364 -4 782 -3 l760 3 0 30 0
30 -782 3 c-521 1 -784 -1 -788 -8z"/>
<path d="M1860 4115 l0 -1765 220 0 220 0 0 743 0 743 116 167 116 168 77
-109 c42 -60 328 -470 636 -910 l560 -802 258 0 258 0 -32 46 c-17 26 -358
513 -756 1083 -399 570 -727 1041 -730 1048 -3 6 203 312 457 680 l462 668
-249 3 c-136 1 -252 1 -258 -2 -5 -2 -212 -294 -460 -649 l-450 -646 -3 649
-2 650 -220 0 -220 0 0 -1765z"/>
<path d="M4570 4115 l0 -1765 220 0 220 0 0 746 0 746 111 159 c62 87 115 159
119 159 4 0 292 -407 640 -905 l633 -905 258 0 258 0 -176 253 c-97 138 -439
627 -760 1086 -321 458 -585 837 -586 841 -1 4 203 303 453 665 250 362 459
664 463 672 7 11 -38 13 -250 13 l-258 -1 -452 -651 -453 -650 0 651 0 651
-220 0 -220 0 0 -1765z"/>
<path d="M7230 4115 l0 -1765 220 0 220 0 2 1435 3 1436 570 -747 c314 -411
575 -754 581 -762 8 -11 132 146 590 747 l579 761 3 -1435 2 -1435 220 0 220
0 0 1765 0 1765 -237 0 -238 0 -560 -736 c-308 -405 -563 -737 -566 -739 -3
-2 -259 329 -570 735 l-564 740 -237 0 -238 0 0 -1765z"/>
<path d="M9993 1785 c-135 -29 -248 -121 -309 -250 -68 -141 -57 -315 25 -443
90 -137 227 -212 391 -212 279 1 490 246 451 526 -27 190 -185 353 -371 383
-81 13 -109 13 -187 -4z m272 -74 c213 -99 303 -352 199 -558 -35 -69 -128
-157 -201 -190 -77 -36 -205 -44 -284 -18 -112 36 -203 116 -256 224 -25 51
-28 66 -28 166 0 100 3 116 29 172 30 66 123 165 183 197 107 55 250 58 358 7z"/>
<path d="M1971 1340 c-88 -242 -161 -442 -161 -445 0 -3 11 -5 24 -5 19 0 28
9 40 43 9 23 42 112 74 197 l57 155 155 0 155 0 71 -195 c68 -185 73 -195 99
-198 23 -3 27 -1 21 15 -4 10 -70 191 -147 403 -77 212 -147 404 -156 428 -13
35 -20 42 -43 42 -27 0 -30 -8 -189 -440z m257 187 c34 -94 62 -178 62 -184 0
-10 -33 -13 -130 -13 -97 0 -130 3 -130 13 0 17 124 357 130 357 3 0 33 -78
68 -173z"/>
<path d="M4542 1433 c3 -339 4 -349 26 -390 55 -105 143 -157 262 -157 124 0
214 57 266 168 24 51 24 54 24 389 0 326 -1 337 -19 337 -19 0 -20 -12 -23
-327 -3 -374 -5 -381 -90 -460 -93 -85 -223 -85 -316 0 -81 75 -82 76 -82 455
l0 332 -25 0 -26 0 3 -347z"/>
<path d="M7170 1760 c0 -18 8 -20 113 -22 l112 -3 3 -422 c2 -415 3 -423 22
-423 20 0 20 7 20 425 l0 425 115 0 c108 0 115 1 115 20 0 19 -7 20 -250 20
-242 0 -250 -1 -250 -20z"/>
</g>
</svg>
