<?xml version="1.0" encoding="UTF-8"?>
<svg xmlns="http://www.w3.org/2000/svg" xmlns:xlink="http://www.w3.org/1999/xlink" width="150px" height="199px" viewBox="0 0 150 199" version="1.1">
<g id="surface1">
<path style=" stroke:none;fill-rule:nonzero;fill:rgb(0%,0%,0%);fill-opacity:1;" d="M 0 99.5 L 0 199 L 150 199 L 150 0 L 0 0 Z M 149 99.5 L 149 198 L 1 198 L 1 1 L 149 1 Z M 149 99.5 "/>
<path style=" stroke:none;fill-rule:nonzero;fill:rgb(0%,0%,0%);fill-opacity:1;" d="M 27.75 17.3125 L 27.324219 17.761719 L 74.125 64.5625 L 27.3125 111.375 L 27.726562 111.773438 L 28.125 112.1875 L 74.9375 65.375 L 121.738281 112.175781 L 122.125 111.8125 C 122.324219 111.613281 122.5 111.398438 122.5 111.324219 C 122.5 111.261719 112 100.699219 99.164062 87.851562 L 75.8125 64.5 L 122.5625 17.75 L 122.148438 17.351562 L 121.75 16.9375 L 75 63.6875 L 28.175781 16.863281 Z M 27.75 17.3125 "/>
<path style=" stroke:none;fill-rule:nonzero;fill:rgb(0%,0%,0%);fill-opacity:1;" d="M 64.761719 19.125 C 64.386719 19.261719 63.863281 19.511719 63.601562 19.6875 C 63.199219 19.949219 63.113281 20.074219 63.148438 20.351562 C 63.1875 20.664062 63.335938 20.738281 65.148438 21.4375 C 66.226562 21.863281 67.1875 22.273438 67.300781 22.363281 C 67.585938 22.601562 67.5625 23.710938 67.25 24.523438 C 66.949219 25.324219 66.324219 26.125 66 26.125 C 65.863281 26.125 64.9375 25.8125 63.9375 25.4375 C 62.949219 25.0625 61.960938 24.75 61.75 24.75 C 61.398438 24.75 61.375 24.773438 61.375 25.210938 C 61.375 26.1875 62.4375 27.800781 63.648438 28.699219 C 64.636719 29.425781 65.574219 29.75 67.050781 29.886719 C 67.738281 29.949219 68.523438 30.113281 68.800781 30.238281 C 69.085938 30.363281 69.824219 30.949219 70.4375 31.539062 L 71.5625 32.613281 L 69.9375 34.25 C 67.9375 36.273438 67.625 36.476562 66.175781 36.625 C 64.363281 36.824219 63.851562 37 62.886719 37.738281 C 62 38.414062 61.085938 40.289062 61.3125 40.988281 C 61.4375 41.386719 61.886719 41.3125 63.011719 40.6875 C 63.574219 40.375 64.148438 40.125 64.300781 40.125 C 64.585938 40.125 66.101562 41.011719 66.261719 41.273438 C 66.449219 41.5625 66.386719 43.414062 66.1875 43.710938 C 66.085938 43.863281 65.585938 44.199219 65.085938 44.476562 C 64.039062 45.050781 63.824219 45.261719 63.9375 45.613281 C 64.085938 46.101562 65.625 46.375 66.8125 46.125 C 68.664062 45.75 70.011719 44.398438 70.488281 42.449219 C 70.789062 41.226562 71.324219 40.539062 73.800781 38.210938 L 75.351562 36.75 L 77.050781 38.386719 C 78.960938 40.226562 79.476562 40.949219 80.25 42.914062 C 80.886719 44.511719 81.4375 45.199219 82.511719 45.738281 C 83.5 46.226562 84.363281 46.324219 85.386719 46.074219 C 88.324219 45.324219 89.5625 41.988281 87.851562 39.425781 C 87.351562 38.6875 86.574219 38.136719 85.351562 37.6875 C 83.726562 37.074219 83.148438 36.664062 81.164062 34.699219 C 80.113281 33.675781 79.25 32.761719 79.25 32.6875 C 79.25 32.449219 81.636719 30.199219 82.136719 29.976562 C 82.375 29.851562 83.148438 29.699219 83.851562 29.636719 C 85.335938 29.5 86.1875 29.164062 87.050781 28.375 C 88 27.5 88.648438 26.101562 88.449219 25.335938 C 88.375 25.039062 88.324219 25.011719 88.023438 25.074219 C 87.835938 25.125 87.199219 25.414062 86.601562 25.726562 L 85.511719 26.300781 L 84.976562 26.039062 C 84.675781 25.898438 84.199219 25.601562 83.914062 25.386719 L 83.375 25 L 83.375 23.875 C 83.375 22.550781 83.375 22.550781 84.75 21.789062 C 85.261719 21.5 85.761719 21.164062 85.835938 21.011719 C 85.976562 20.800781 85.949219 20.726562 85.675781 20.511719 C 84.988281 19.976562 82.988281 20 81.863281 20.550781 C 80.5625 21.199219 79.8125 22.136719 79.289062 23.789062 C 78.863281 25.101562 78.585938 25.5 76.789062 27.289062 L 75.300781 28.761719 L 74.136719 27.5625 C 72.863281 26.25 72.539062 25.664062 72.199219 24.125 C 71.699219 21.8125 71.613281 21.550781 71.148438 20.875 C 70.3125 19.636719 68.863281 18.988281 66.75 18.914062 C 65.664062 18.875 65.324219 18.914062 64.761719 19.125 Z M 67.636719 19.925781 C 68.710938 20.164062 69.601562 20.613281 70.125 21.199219 C 70.625 21.789062 70.824219 22.226562 71 23.273438 C 71.386719 25.5 69.9375 28.273438 68.101562 28.8125 C 67.136719 29.085938 65.835938 28.851562 64.675781 28.164062 C 63.914062 27.726562 62.476562 26.125 62.851562 26.125 C 62.898438 26.125 63.523438 26.351562 64.238281 26.625 C 65.925781 27.289062 66.335938 27.289062 67.0625 26.613281 C 67.886719 25.851562 68.375 24.761719 68.460938 23.511719 C 68.574219 21.851562 68.375 21.585938 66.3125 20.824219 C 65.625 20.5625 65.011719 20.3125 64.949219 20.25 C 64.851562 20.148438 65.375 19.960938 66.125 19.835938 C 66.675781 19.738281 66.800781 19.75 67.636719 19.925781 Z M 83.375 21.398438 C 82.5625 21.960938 82.4375 22.25 82.398438 23.789062 C 82.351562 25.511719 82.449219 25.710938 83.800781 26.550781 C 84.960938 27.273438 85.488281 27.375 86.3125 27.011719 C 86.636719 26.875 86.925781 26.75 86.949219 26.75 C 87.101562 26.75 86.9375 27.011719 86.5 27.476562 C 85.738281 28.261719 85.164062 28.5 83.699219 28.636719 C 81.925781 28.800781 81.210938 29.164062 79.699219 30.625 L 78.511719 31.773438 L 78.164062 31.523438 C 77.976562 31.386719 77.425781 30.875 76.9375 30.386719 L 76.0625 29.5 L 77.523438 28.023438 C 79.4375 26.101562 79.800781 25.585938 80.1875 24.324219 C 80.574219 23.0625 81.074219 22.238281 81.738281 21.800781 C 82.3125 21.425781 83.050781 21.136719 83.488281 21.125 C 83.761719 21.125 83.761719 21.136719 83.375 21.398438 Z M 72.164062 26.800781 C 72.710938 27.636719 81.523438 36.648438 82.375 37.25 C 82.710938 37.488281 82.988281 37.710938 83 37.75 C 83 37.789062 82.75 37.949219 82.4375 38.113281 C 81.699219 38.5 81.023438 39.199219 80.625 40 L 80.300781 40.636719 L 79.710938 39.789062 C 79.375 39.289062 77.148438 36.925781 74.351562 34.085938 L 69.5625 29.226562 L 69.960938 28.925781 C 70.4375 28.5625 71.324219 27.238281 71.523438 26.585938 C 71.601562 26.335938 71.675781 26.125 71.6875 26.125 C 71.699219 26.125 71.914062 26.425781 72.164062 26.800781 Z M 72.574219 37.914062 C 70.5 40.0625 69.835938 40.949219 69.613281 41.8125 C 69.125 43.761719 68.039062 44.914062 66.4375 45.175781 C 66.011719 45.238281 65.976562 45.226562 66.175781 45.085938 C 67.226562 44.386719 67.375 44.0625 67.375 42.414062 C 67.375 40.863281 67.226562 40.585938 65.898438 39.75 C 65.085938 39.226562 64.835938 39.125 64.335938 39.125 C 63.988281 39.125 63.539062 39.226562 63.25 39.375 C 62.636719 39.6875 62.625 39.574219 63.1875 38.898438 C 63.851562 38.125 64.726562 37.761719 66.164062 37.636719 C 67.960938 37.488281 68.550781 37.148438 70.550781 35.136719 L 72.164062 33.511719 L 73.375 34.664062 L 74.585938 35.8125 Z M 85.414062 38.773438 C 85.949219 38.9375 87.25 40.039062 87.085938 40.199219 C 87.039062 40.25 86.738281 40.011719 86.414062 39.6875 C 85.914062 39.164062 85.738281 39.0625 85.199219 38.988281 C 84.851562 38.9375 84.398438 38.851562 84.210938 38.800781 C 83.949219 38.738281 83.761719 38.789062 83.488281 38.988281 C 83.136719 39.25 82.125 39.675781 82.125 39.5625 C 82.125 39.449219 82.9375 38.949219 83.363281 38.800781 C 83.9375 38.585938 84.761719 38.585938 85.414062 38.773438 Z M 81.949219 40.125 C 81.875 40.511719 81.375 41.289062 81.273438 41.1875 C 81.199219 41.125 81.863281 39.75 81.960938 39.75 C 82 39.75 82 39.925781 81.949219 40.125 Z M 85.773438 40.511719 C 86.074219 40.824219 86.25 41.125 86.261719 41.351562 C 86.261719 41.539062 86.3125 41.800781 86.363281 41.9375 C 86.4375 42.113281 86.363281 42.386719 86.148438 42.8125 C 85.914062 43.3125 85.726562 43.488281 85.261719 43.710938 C 84.738281 43.960938 84.625 43.976562 84.039062 43.835938 C 82.625 43.511719 82.0625 42.289062 82.710938 40.976562 C 83.113281 40.164062 83.6875 39.851562 84.625 39.949219 C 85.199219 40.011719 85.375 40.101562 85.773438 40.511719 Z M 87.574219 41.574219 L 87.625 42.3125 L 87.449219 41.875 C 87.238281 41.351562 87.1875 40.511719 87.386719 40.710938 C 87.449219 40.773438 87.539062 41.175781 87.574219 41.574219 Z M 81.488281 42.164062 C 81.5625 42.398438 81.574219 42.710938 81.511719 42.9375 C 81.414062 43.300781 81.414062 43.289062 81.273438 42.648438 C 81.1875 42.289062 81.125 41.898438 81.125 41.800781 C 81.125 41.5 81.351562 41.710938 81.488281 42.164062 Z M 87.386719 43.136719 C 87.085938 44 86.148438 44.875 85.3125 45.074219 L 84.9375 45.164062 L 85.335938 44.835938 C 85.550781 44.648438 85.898438 44.460938 86.113281 44.425781 C 86.511719 44.335938 86.875 43.960938 86.875 43.636719 C 86.875 43.4375 87.398438 42.613281 87.476562 42.6875 C 87.511719 42.710938 87.460938 42.914062 87.386719 43.136719 Z M 82.5 44.238281 C 82.835938 44.664062 82.976562 44.726562 83.5625 44.789062 C 83.925781 44.824219 84.386719 44.949219 84.585938 45.0625 C 84.9375 45.261719 84.9375 45.261719 84.238281 45.199219 C 83.363281 45.136719 82.6875 44.800781 82.085938 44.136719 C 81.835938 43.851562 81.625 43.601562 81.625 43.5625 C 81.625 43.386719 82.148438 43.800781 82.5 44.238281 Z M 82.5 44.238281 "/>
<path style=" stroke:none;fill-rule:nonzero;fill:rgb(0%,0%,0%);fill-opacity:1;" d="M 113 50.449219 C 106.125 51.074219 100.851562 56.261719 100.113281 63.125 C 99.863281 65.363281 100.226562 67.824219 101.113281 69.976562 C 102.636719 73.664062 105.851562 76.648438 109.675781 77.925781 C 112.9375 79.023438 116.976562 78.789062 120.085938 77.3125 C 126.324219 74.363281 129.511719 67.5 127.75 60.8125 C 127.4375 59.636719 126.488281 57.601562 125.75 56.5 C 123.75 53.5625 120.324219 51.324219 116.824219 50.6875 C 115.699219 50.488281 113.875 50.375 113 50.449219 Z M 113.726562 51.9375 C 114.101562 52.5625 114.289062 52.675781 114.636719 52.5 C 114.925781 52.335938 114.9375 52.226562 114.6875 51.75 C 114.5 51.386719 114.5 51.375 114.789062 51.375 C 114.949219 51.375 115.636719 51.460938 116.324219 51.5625 C 117.375 51.710938 117.601562 51.789062 117.851562 52.0625 C 118 52.238281 118.125 52.539062 118.125 52.726562 C 118.125 53.199219 118.289062 53.398438 118.636719 53.351562 C 118.886719 53.324219 118.949219 53.226562 118.976562 52.835938 C 119 52.585938 119.074219 52.375 119.164062 52.375 C 119.324219 52.375 121.476562 53.574219 121.761719 53.835938 C 121.9375 53.976562 121.960938 54.164062 121.914062 54.75 C 121.851562 55.386719 121.875 55.511719 122.0625 55.574219 C 122.335938 55.6875 122.675781 55.488281 122.726562 55.175781 C 122.75 55.050781 122.8125 54.886719 122.863281 54.835938 C 122.925781 54.789062 123.449219 55.300781 124.050781 56 L 125.148438 57.261719 L 124.800781 57.925781 C 124.5 58.5 124.476562 58.625 124.613281 58.800781 C 124.863281 59.101562 125.210938 59.039062 125.449219 58.675781 C 125.5625 58.5 125.699219 58.414062 125.761719 58.460938 C 125.898438 58.613281 126.875 61.148438 126.875 61.386719 C 126.875 61.5 126.675781 61.75 126.4375 61.925781 C 126.113281 62.175781 126 62.363281 126 62.613281 C 126 63.085938 126.324219 63.210938 126.761719 62.886719 C 126.949219 62.75 127.125 62.675781 127.175781 62.710938 C 127.210938 62.761719 127.25 63.511719 127.25 64.398438 L 127.25 66.011719 L 126.550781 66.324219 C 125.925781 66.601562 125.863281 66.664062 125.898438 66.976562 C 125.9375 67.289062 125.976562 67.3125 126.476562 67.289062 C 126.851562 67.273438 127 67.3125 126.960938 67.414062 C 126.9375 67.5 126.699219 68.199219 126.449219 68.976562 C 125.9375 70.488281 125.976562 70.460938 124.9375 70.523438 C 124.476562 70.5625 124.4375 70.585938 124.4375 70.9375 C 124.4375 71.273438 124.488281 71.3125 124.851562 71.351562 C 125.0625 71.375 125.25 71.4375 125.25 71.5 C 125.25 71.636719 123.25 74.0625 123.136719 74.0625 C 123.101562 74.0625 122.800781 73.988281 122.476562 73.886719 C 121.761719 73.6875 121.5 73.761719 121.5 74.1875 C 121.5 74.4375 121.601562 74.550781 121.886719 74.675781 L 122.273438 74.835938 L 121.925781 75.085938 C 121.726562 75.226562 121.074219 75.625 120.460938 75.988281 L 119.375 76.636719 L 118.914062 76.261719 C 118.636719 76.039062 118.300781 75.875 118.101562 75.875 C 117.800781 75.875 117.75 75.925781 117.75 76.238281 C 117.75 76.476562 117.851562 76.675781 118.023438 76.800781 C 118.175781 76.914062 118.273438 77.011719 118.238281 77.050781 C 118.113281 77.164062 115.863281 77.625 115.398438 77.625 C 114.9375 77.625 114.863281 77.574219 114.539062 77.085938 C 114.273438 76.710938 114.085938 76.5625 113.875 76.5625 C 113.625 76.5625 113.550781 76.636719 113.523438 76.914062 C 113.5 77.113281 113.550781 77.351562 113.636719 77.449219 C 113.710938 77.550781 113.761719 77.664062 113.726562 77.6875 C 113.6875 77.726562 113 77.648438 112.1875 77.523438 C 110.886719 77.3125 110.675781 77.25 110.414062 76.949219 C 110.25 76.761719 110.125 76.449219 110.125 76.261719 C 110.125 75.835938 109.851562 75.574219 109.511719 75.6875 C 109.324219 75.738281 109.25 75.886719 109.226562 76.25 L 109.1875 76.75 L 106.3125 75.148438 L 106.351562 74.335938 C 106.386719 73.675781 106.363281 73.523438 106.1875 73.449219 C 105.875 73.335938 105.5 73.601562 105.5 73.9375 C 105.5 74.5 105.4375 74.449219 103.335938 72.039062 C 103.101562 71.773438 103.113281 71.761719 103.4375 71.199219 C 103.835938 70.511719 103.773438 70.125 103.261719 70.125 C 103.011719 70.125 102.875 70.210938 102.761719 70.460938 C 102.675781 70.636719 102.5625 70.738281 102.511719 70.675781 C 102.460938 70.613281 102.175781 69.898438 101.875 69.085938 L 101.335938 67.613281 L 101.875 67.0625 C 102.226562 66.699219 102.386719 66.449219 102.335938 66.324219 C 102.210938 66 101.863281 65.9375 101.476562 66.164062 C 101 66.4375 100.988281 66.375 101.023438 64.550781 L 101.0625 63.0625 L 101.6875 62.75 C 102.101562 62.550781 102.324219 62.351562 102.351562 62.175781 C 102.398438 61.789062 102.113281 61.613281 101.636719 61.75 C 101.238281 61.863281 101.238281 61.863281 101.3125 61.5 C 101.351562 61.300781 101.601562 60.585938 101.851562 59.914062 L 102.3125 58.6875 L 102.8125 58.648438 C 103.625 58.601562 103.851562 58.511719 103.9375 58.238281 C 104.050781 57.898438 103.800781 57.625 103.363281 57.625 C 103.164062 57.625 103 57.585938 103 57.550781 C 103 57.511719 103.460938 56.914062 104.023438 56.226562 C 105.011719 55.023438 105.0625 54.988281 105.425781 55.074219 C 105.636719 55.125 106.011719 55.164062 106.25 55.175781 C 106.625 55.1875 106.6875 55.148438 106.726562 54.875 C 106.75 54.613281 106.675781 54.511719 106.363281 54.363281 L 105.976562 54.175781 L 106.710938 53.664062 C 107.523438 53.101562 108.664062 52.5 108.898438 52.5 C 108.988281 52.511719 109.261719 52.675781 109.5 52.875 C 110 53.3125 110.3125 53.351562 110.5 53.011719 C 110.675781 52.675781 110.675781 52.675781 110.289062 52.324219 L 109.960938 52.023438 L 110.449219 51.886719 C 111.273438 51.675781 112.050781 51.511719 112.4375 51.460938 C 113.351562 51.351562 113.375 51.351562 113.726562 51.9375 Z M 113.726562 51.9375 "/>
<path style=" stroke:none;fill-rule:nonzero;fill:rgb(0%,0%,0%);fill-opacity:1;" d="M 112.664062 56.886719 C 110.5 57.25 108.226562 58.960938 107.210938 60.988281 C 106.574219 62.261719 106.324219 63.511719 106.414062 64.988281 C 106.601562 68.113281 108.460938 70.648438 111.449219 71.835938 C 112.25 72.148438 112.449219 72.1875 114.125 72.1875 C 115.875 72.1875 115.960938 72.175781 116.9375 71.773438 C 118.800781 71.023438 120.261719 69.675781 121.113281 67.925781 C 121.710938 66.6875 121.914062 65.664062 121.835938 64.125 C 121.738281 61.960938 121.011719 60.386719 119.414062 58.875 C 117.613281 57.164062 115.226562 56.460938 112.664062 56.886719 Z M 115.414062 57.824219 C 115.601562 57.886719 115.613281 57.976562 115.539062 58.539062 C 115.074219 61.601562 116.3125 62.6875 118.960938 61.550781 C 119.835938 61.175781 120.050781 61.125 120.136719 61.261719 C 120.414062 61.6875 120.773438 62.863281 120.789062 63.375 L 120.8125 63.925781 L 120.226562 64.011719 C 118.414062 64.289062 117.375 65.039062 117.375 66.101562 C 117.375 66.613281 117.898438 67.585938 118.613281 68.386719 L 119.238281 69.085938 L 118.835938 69.476562 C 118.375 69.914062 117.136719 70.75 116.9375 70.75 C 116.875 70.75 116.625 70.386719 116.398438 69.949219 C 115.664062 68.523438 114.738281 67.886719 113.738281 68.085938 C 113.199219 68.1875 112.300781 69.113281 111.800781 70.050781 C 111.601562 70.4375 111.375 70.75 111.3125 70.75 C 111.113281 70.75 109.863281 69.914062 109.414062 69.460938 L 109 69.074219 L 109.699219 68.351562 C 110.863281 67.136719 111.148438 66 110.539062 65.136719 C 110.1875 64.664062 109.085938 64.148438 108.226562 64.050781 C 107.75 64 107.449219 63.898438 107.414062 63.789062 C 107.3125 63.523438 107.585938 62.414062 107.9375 61.664062 L 108.238281 61 L 108.664062 61.25 C 109.261719 61.613281 110.476562 62 110.960938 62 C 111.550781 62 112.1875 61.710938 112.4375 61.324219 C 112.773438 60.8125 112.863281 60.164062 112.75 59.023438 C 112.6875 58.425781 112.664062 57.925781 112.699219 57.886719 C 112.914062 57.675781 114.726562 57.625 115.414062 57.824219 Z M 111.863281 59.601562 C 111.875 60.425781 111.835938 60.539062 111.550781 60.835938 C 111.289062 61.085938 111.148438 61.136719 110.8125 61.085938 C 110.300781 61 108.875 60.386719 108.875 60.25 C 108.875 60.039062 110.398438 58.761719 111.023438 58.449219 L 111.6875 58.113281 L 111.773438 58.398438 C 111.8125 58.5625 111.851562 59.101562 111.863281 59.601562 Z M 117.789062 58.761719 C 118.261719 59.085938 119.375 60.136719 119.375 60.261719 C 119.375 60.386719 117.5625 61.125 117.25 61.125 C 117.113281 61.125 116.851562 60.988281 116.6875 60.8125 C 116.425781 60.550781 116.375 60.398438 116.375 59.710938 C 116.375 59.261719 116.414062 58.738281 116.449219 58.523438 L 116.523438 58.136719 L 116.960938 58.3125 C 117.199219 58.414062 117.574219 58.613281 117.789062 58.761719 Z M 108.886719 65.199219 C 109.460938 65.386719 109.773438 65.625 109.914062 66.011719 C 110.023438 66.363281 109.550781 67.1875 108.949219 67.6875 C 108.386719 68.136719 108.363281 68.148438 108.1875 67.925781 C 107.9375 67.601562 107.511719 66.300781 107.386719 65.5 L 107.289062 64.851562 L 107.800781 64.925781 C 108.074219 64.976562 108.574219 65.085938 108.886719 65.199219 Z M 120.898438 65.4375 C 120.835938 66.0625 120.4375 67.3125 120.101562 67.851562 C 119.851562 68.25 119.835938 68.261719 119.585938 68.039062 C 118.960938 67.476562 118.375 66.601562 118.375 66.199219 C 118.375 65.664062 118.6875 65.398438 119.648438 65.113281 C 120.800781 64.789062 120.949219 64.824219 120.898438 65.4375 Z M 114.835938 69.351562 C 115.226562 69.738281 115.9375 70.976562 115.835938 71.085938 C 115.476562 71.4375 112.773438 71.4375 112.414062 71.074219 C 112.324219 70.988281 112.9375 69.960938 113.398438 69.4375 C 113.875 68.886719 114.335938 68.863281 114.835938 69.351562 Z M 114.835938 69.351562 "/>
<path style=" stroke:none;fill-rule:nonzero;fill:rgb(0%,0%,0%);fill-opacity:1;" d="M 113.824219 60.574219 C 113.710938 60.675781 113.625 60.8125 113.625 60.875 C 113.625 60.988281 113.976562 61.375 114.074219 61.375 C 114.289062 61.375 114.625 61.085938 114.625 60.898438 C 114.625 60.425781 114.164062 60.238281 113.824219 60.574219 Z M 113.824219 60.574219 "/>
<path style=" stroke:none;fill-rule:nonzero;fill:rgb(0%,0%,0%);fill-opacity:1;" d="M 113.023438 62.386719 C 111.488281 63.164062 111.3125 65.398438 112.699219 66.460938 C 113.085938 66.75 113.3125 66.8125 114.050781 66.851562 C 115.074219 66.898438 115.488281 66.710938 116.074219 65.9375 C 116.5625 65.289062 116.648438 64.148438 116.261719 63.398438 C 115.6875 62.273438 114.164062 61.800781 113.023438 62.386719 Z M 114.960938 63.324219 C 115.726562 63.8125 115.800781 64.925781 115.113281 65.574219 C 114.800781 65.875 114.625 65.9375 114.125 65.9375 C 113.625 65.9375 113.449219 65.875 113.136719 65.574219 C 112.636719 65.085938 112.523438 64.523438 112.824219 63.914062 C 113.238281 63.074219 114.1875 62.8125 114.960938 63.324219 Z M 114.960938 63.324219 "/>
<path style=" stroke:none;fill-rule:nonzero;fill:rgb(0%,0%,0%);fill-opacity:1;" d="M 110.25 63.363281 C 110.25 63.789062 110.636719 64 110.949219 63.738281 C 111.273438 63.460938 111.113281 63.0625 110.664062 63.023438 C 110.273438 62.988281 110.25 63.011719 110.25 63.363281 Z M 110.25 63.363281 "/>
<path style=" stroke:none;fill-rule:nonzero;fill:rgb(0%,0%,0%);fill-opacity:1;" d="M 117.1875 63.25 C 117.011719 63.789062 117.738281 64.113281 118 63.636719 C 118.1875 63.273438 118.023438 63 117.625 63 C 117.375 63 117.238281 63.074219 117.1875 63.25 Z M 117.1875 63.25 "/>
<path style=" stroke:none;fill-rule:nonzero;fill:rgb(0%,0%,0%);fill-opacity:1;" d="M 111.625 67.1875 C 111.386719 67.476562 111.585938 67.875 112 67.875 C 112.398438 67.875 112.5625 67.601562 112.375 67.238281 C 112.210938 66.949219 111.835938 66.925781 111.625 67.1875 Z M 111.625 67.1875 "/>
<path style=" stroke:none;fill-rule:nonzero;fill:rgb(0%,0%,0%);fill-opacity:1;" d="M 116.039062 67.085938 C 115.949219 67.113281 115.875 67.3125 115.875 67.511719 C 115.875 67.835938 115.914062 67.875 116.25 67.875 C 116.675781 67.875 116.863281 67.585938 116.664062 67.261719 C 116.523438 67.050781 116.289062 66.976562 116.039062 67.085938 Z M 116.039062 67.085938 "/>
<path style=" stroke:none;fill-rule:nonzero;fill:rgb(0%,0%,0%);fill-opacity:1;" d="M 45.8125 53.886719 C 45.0625 54.101562 44.363281 54.335938 44.261719 54.414062 C 44.101562 54.550781 44.125 55.25 44.324219 56.136719 C 44.386719 56.425781 44.324219 56.523438 43.851562 56.851562 C 43.3125 57.210938 42.613281 57.925781 42 58.726562 L 41.6875 59.125 L 41.023438 58.925781 C 39.773438 58.550781 39.675781 58.675781 39.050781 61.085938 C 38.710938 62.425781 38.710938 62.5 38.914062 62.726562 C 39.039062 62.863281 39.476562 63.0625 39.875 63.175781 C 40.5 63.351562 40.625 63.4375 40.625 63.664062 C 40.625 64.164062 40.988281 65.664062 41.273438 66.335938 L 41.539062 66.988281 L 41.023438 67.550781 C 40.414062 68.226562 40.335938 68.738281 40.789062 69.238281 L 41.0625 69.550781 L 40.625 69.25 C 40.386719 69.085938 40.175781 68.949219 40.164062 68.9375 C 40.148438 68.9375 40.210938 68.625 40.3125 68.25 C 40.539062 67.414062 40.539062 67.226562 40.351562 66.960938 C 40.164062 66.726562 37.585938 66 36.9375 66 C 36.449219 66 36.210938 66.3125 36.0625 67.148438 C 35.949219 67.75 35.835938 67.824219 34.9375 67.914062 C 34.523438 67.9375 33.738281 68.148438 33.1875 68.363281 L 32.1875 68.75 L 31.625 68.1875 C 30.789062 67.363281 30.648438 67.398438 29.210938 68.851562 C 27.761719 70.300781 27.726562 70.460938 28.550781 71.335938 L 29.085938 71.925781 L 28.800781 72.574219 C 28.648438 72.925781 28.449219 73.574219 28.375 74.011719 C 28.085938 75.601562 28.136719 75.5 27.289062 75.761719 C 26.1875 76.113281 26.164062 76.1875 26.636719 78.039062 C 26.851562 78.875 27.113281 79.6875 27.210938 79.835938 C 27.414062 80.175781 27.800781 80.199219 28.636719 79.949219 L 29.210938 79.773438 L 29.824219 80.539062 C 30.164062 80.960938 30.75 81.550781 31.125 81.863281 C 31.863281 82.460938 31.863281 82.460938 31.6875 83.6875 C 31.613281 84.1875 31.636719 84.351562 31.789062 84.476562 C 32.050781 84.699219 34.585938 85.363281 35.164062 85.375 C 35.585938 85.375 35.664062 85.324219 35.8125 84.960938 C 35.898438 84.75 36.011719 84.351562 36.0625 84.085938 C 36.164062 83.585938 36.085938 83.613281 37.5 83.398438 C 37.949219 83.335938 38.664062 83.136719 39.074219 82.976562 L 39.835938 82.664062 L 40.414062 83.210938 C 41.289062 84.039062 41.449219 83.988281 42.914062 82.523438 C 44.335938 81.085938 44.375 80.949219 43.5625 80.125 L 43 79.5625 L 43.386719 78.574219 C 43.613281 78 43.800781 77.238281 43.835938 76.738281 L 43.914062 75.886719 L 44.800781 75.601562 C 45.636719 75.324219 45.6875 75.289062 45.726562 74.914062 C 45.75 74.6875 45.585938 73.824219 45.363281 73 C 44.898438 71.226562 44.789062 71.113281 43.773438 71.351562 C 43.449219 71.425781 43.101562 71.511719 43 71.550781 C 42.875 71.601562 42.710938 71.460938 42.511719 71.148438 L 42.210938 70.6875 L 42.523438 70.960938 C 43.011719 71.425781 43.460938 71.335938 44.136719 70.675781 L 44.710938 70.101562 L 45.210938 70.351562 C 45.8125 70.664062 46.851562 70.960938 47.710938 71.0625 C 48.363281 71.148438 48.375 71.164062 48.5 71.664062 C 48.710938 72.488281 48.851562 72.738281 49.164062 72.886719 C 49.460938 73.023438 49.648438 72.988281 52.101562 72.289062 C 52.976562 72.039062 53.085938 71.800781 52.8125 70.75 C 52.636719 70.050781 52.625 69.949219 52.789062 69.851562 C 53.335938 69.550781 54.300781 68.664062 54.761719 68.050781 C 55.226562 67.449219 55.335938 67.363281 55.613281 67.425781 C 56.5625 67.636719 57.085938 67.648438 57.273438 67.460938 C 57.476562 67.25 58.25 64.613281 58.25 64.101562 C 58.25 63.675781 57.988281 63.476562 57.136719 63.238281 C 56.476562 63.050781 56.4375 63.023438 56.398438 62.613281 C 56.335938 61.851562 56.125 60.988281 55.800781 60.164062 L 55.476562 59.351562 L 56.050781 58.761719 C 56.414062 58.398438 56.625 58.0625 56.625 57.875 C 56.625 57.664062 56.273438 57.226562 55.398438 56.351562 C 53.9375 54.886719 53.789062 54.851562 52.875 55.699219 C 52.289062 56.25 52.261719 56.261719 51.914062 56.085938 C 51.289062 55.773438 50.300781 55.488281 49.488281 55.398438 L 48.699219 55.3125 L 48.488281 54.585938 C 48.375 54.1875 48.199219 53.789062 48.125 53.6875 C 47.898438 53.425781 47.375 53.460938 45.8125 53.886719 Z M 47.550781 54.898438 C 47.585938 55.125 47.6875 55.5 47.75 55.761719 L 47.875 56.210938 L 48.863281 56.300781 C 49.925781 56.386719 50.800781 56.648438 51.863281 57.1875 L 52.539062 57.523438 L 53.175781 56.886719 L 53.824219 56.25 L 54.648438 57.101562 L 55.488281 57.9375 L 54.863281 58.585938 L 54.238281 59.238281 L 54.613281 59.976562 C 55.085938 60.914062 55.335938 61.835938 55.449219 62.960938 L 55.523438 63.851562 L 56.386719 64.0625 C 56.863281 64.1875 57.25 64.289062 57.25 64.300781 C 57.25 64.386719 56.625 66.539062 56.601562 66.574219 C 56.5625 66.601562 56.164062 66.511719 55.6875 66.375 C 55.210938 66.238281 54.824219 66.136719 54.8125 66.164062 C 54.800781 66.175781 54.585938 66.5 54.351562 66.875 C 53.835938 67.675781 52.789062 68.699219 52.023438 69.136719 C 51.738281 69.300781 51.5 69.488281 51.5 69.5625 C 51.5 69.625 51.585938 70 51.6875 70.375 C 51.789062 70.75 51.875 71.125 51.875 71.199219 C 51.875 71.375 49.75 71.925781 49.625 71.789062 C 49.574219 71.738281 49.460938 71.398438 49.375 71.0625 C 49.148438 70.210938 49.0625 70.125 48.386719 70.125 C 47.5625 70.125 46.3125 69.800781 45.449219 69.375 C 45.039062 69.164062 44.648438 69 44.574219 69 C 44.5 69 44.175781 69.261719 43.851562 69.585938 L 43.25 70.1875 L 42.414062 69.335938 L 41.5625 68.5 L 42.164062 67.898438 C 42.488281 67.574219 42.75 67.238281 42.75 67.136719 C 42.75 67.050781 42.613281 66.75 42.449219 66.460938 C 42 65.664062 41.726562 64.675781 41.636719 63.574219 L 41.5625 62.574219 L 41.125 62.460938 C 40.886719 62.414062 40.488281 62.300781 40.226562 62.238281 L 39.773438 62.125 L 40.074219 61.050781 C 40.238281 60.449219 40.398438 59.9375 40.4375 59.898438 C 40.476562 59.863281 40.789062 59.898438 41.136719 59.976562 C 42.148438 60.210938 42.300781 60.175781 42.601562 59.648438 C 43.039062 58.875 43.835938 58.039062 44.699219 57.476562 C 45.136719 57.1875 45.5 56.863281 45.5 56.75 C 45.5 56.636719 45.414062 56.25 45.300781 55.886719 C 45.199219 55.523438 45.148438 55.1875 45.1875 55.148438 C 45.273438 55.0625 47.074219 54.523438 47.324219 54.511719 C 47.398438 54.5 47.5 54.675781 47.550781 54.898438 Z M 38.25 67.25 C 38.761719 67.386719 39.25 67.523438 39.335938 67.5625 C 39.4375 67.601562 39.4375 67.761719 39.300781 68.199219 C 39 69.199219 39.050781 69.4375 39.664062 69.789062 C 40.351562 70.199219 41.300781 71.136719 41.851562 71.960938 C 42.335938 72.699219 42.425781 72.726562 43.476562 72.449219 C 43.976562 72.3125 44.148438 72.300781 44.1875 72.414062 C 44.289062 72.726562 44.75 74.460938 44.75 74.523438 C 44.75 74.5625 44.363281 74.699219 43.875 74.824219 L 43 75.050781 L 43 75.613281 C 43 76.539062 42.664062 77.851562 42.1875 78.800781 L 41.75 79.675781 L 42.398438 80.335938 L 43.0625 81 L 42.210938 81.835938 L 41.375 82.6875 L 40.773438 82.085938 C 40.449219 81.761719 40.085938 81.5 39.976562 81.5 C 39.875 81.5 39.539062 81.636719 39.238281 81.800781 C 38.511719 82.199219 37.511719 82.476562 36.375 82.601562 L 35.449219 82.6875 L 35.199219 83.5 C 35.074219 83.949219 34.949219 84.335938 34.925781 84.351562 C 34.898438 84.386719 33.226562 83.976562 32.789062 83.8125 C 32.6875 83.773438 32.710938 83.523438 32.875 82.863281 C 33.011719 82.363281 33.101562 81.9375 33.085938 81.9375 C 33.074219 81.9375 32.75 81.726562 32.375 81.488281 C 31.539062 80.9375 30.574219 79.988281 30.164062 79.273438 C 29.8125 78.675781 29.585938 78.625 28.601562 78.9375 C 28.273438 79.023438 27.988281 79.074219 27.949219 79.023438 C 27.835938 78.824219 27.351562 76.863281 27.414062 76.800781 C 27.4375 76.761719 27.824219 76.636719 28.261719 76.523438 L 29.0625 76.3125 L 29.148438 75.324219 C 29.25 74.261719 29.488281 73.398438 29.949219 72.476562 C 30.113281 72.148438 30.25 71.8125 30.25 71.726562 C 30.25 71.636719 29.988281 71.300781 29.664062 70.976562 L 29.0625 70.375 L 29.914062 69.539062 L 30.75 68.6875 L 32.074219 70.011719 L 32.636719 69.699219 C 33.476562 69.210938 34.601562 68.875 35.6875 68.773438 C 36.773438 68.675781 36.6875 68.761719 37 67.523438 C 37.074219 67.238281 37.175781 67 37.226562 67 C 37.273438 67 37.738281 67.113281 38.25 67.25 Z M 38.25 67.25 "/>
<path style=" stroke:none;fill-rule:nonzero;fill:rgb(0%,0%,0%);fill-opacity:1;" d="M 47.085938 57.875 C 44.476562 58.539062 42.648438 61.375 43.101562 64.085938 C 43.386719 65.824219 44.601562 67.425781 46.175781 68.175781 C 48.875 69.449219 52.164062 68.273438 53.449219 65.5625 C 54.773438 62.773438 53.601562 59.539062 50.789062 58.210938 C 50.050781 57.875 49.789062 57.8125 48.75 57.789062 C 48.101562 57.773438 47.351562 57.8125 47.085938 57.875 Z M 50.601562 59.238281 C 53.914062 61.023438 53.75 65.75 50.3125 67.324219 C 48.085938 68.351562 45.414062 67.261719 44.351562 64.925781 C 44.136719 64.449219 44.074219 64.074219 44.0625 63.25 C 44.0625 61.835938 44.460938 60.914062 45.511719 59.9375 C 46.539062 59 47.25 58.738281 48.6875 58.789062 C 49.6875 58.824219 49.898438 58.875 50.601562 59.238281 Z M 50.601562 59.238281 "/>
<path style=" stroke:none;fill-rule:nonzero;fill:rgb(0%,0%,0%);fill-opacity:1;" d="M 34.300781 70.476562 C 32.835938 70.988281 31.789062 71.9375 31.085938 73.375 C 30.699219 74.148438 30.6875 74.25 30.6875 75.6875 C 30.6875 77.113281 30.710938 77.226562 31.085938 78.039062 C 31.613281 79.125 32.550781 80.074219 33.675781 80.625 C 34.460938 81.011719 34.675781 81.0625 35.800781 81.101562 C 36.851562 81.136719 37.1875 81.101562 37.8125 80.886719 C 39.488281 80.300781 40.773438 78.988281 41.261719 77.351562 C 41.664062 76.039062 41.5625 74.488281 41 73.3125 C 40.460938 72.175781 39.523438 71.238281 38.414062 70.710938 C 37.648438 70.363281 37.425781 70.3125 36.25 70.289062 C 35.226562 70.25 34.800781 70.300781 34.300781 70.476562 Z M 37.710938 71.523438 C 38.726562 71.898438 39.851562 73.039062 40.238281 74.0625 C 40.625 75.074219 40.625 76.300781 40.238281 77.3125 C 39.914062 78.199219 38.875 79.300781 37.988281 79.710938 C 36.164062 80.5625 34.175781 80.1875 32.824219 78.75 C 31.074219 76.875 31.125 74.238281 32.960938 72.488281 C 34.324219 71.175781 35.914062 70.851562 37.710938 71.523438 Z M 37.710938 71.523438 "/>
<path style=" stroke:none;fill-rule:nonzero;fill:rgb(0%,0%,0%);fill-opacity:1;" d="M 71 90.5 C 68.664062 90.773438 62.101562 92.4375 58.6875 93.636719 C 57.75 93.960938 57.3125 94.039062 56.101562 94.085938 L 54.625 94.148438 L 54.625 94.648438 C 54.625 95.0625 54.539062 95.226562 54.011719 95.75 C 53.335938 96.414062 53.199219 96.851562 53.398438 97.574219 C 53.488281 97.925781 53.488281 98.226562 53.375 98.699219 C 53.289062 99.0625 53.25 99.613281 53.273438 99.925781 C 53.351562 100.539062 53.898438 101.75 54.25 102.0625 C 54.488281 102.289062 58.585938 102.960938 58.914062 102.835938 C 59.136719 102.75 59.210938 102.1875 59.011719 102.074219 C 58.960938 102.039062 58.023438 101.863281 56.9375 101.6875 C 55.863281 101.511719 54.925781 101.335938 54.863281 101.300781 C 54.613281 101.148438 54.226562 100.175781 54.238281 99.761719 C 54.261719 98.875 54.335938 96.9375 54.363281 96.789062 C 54.363281 96.699219 54.625 96.460938 54.9375 96.25 C 55.351562 95.976562 55.5 95.773438 55.5 95.5625 C 55.5 95.226562 55.574219 95.199219 56.75 95.0625 C 57.125 95.023438 58.511719 94.648438 59.8125 94.238281 C 65.835938 92.324219 70.148438 91.386719 72.898438 91.375 C 75.125 91.375 77.976562 92.164062 80.9375 93.613281 C 81.898438 94.085938 82.800781 94.511719 82.9375 94.5625 C 83.074219 94.613281 84.625 94.699219 86.375 94.761719 C 88.335938 94.8125 90 94.9375 90.6875 95.0625 C 92.363281 95.363281 96.25 96.386719 96.449219 96.585938 C 96.761719 96.898438 96.914062 97.800781 96.914062 99.226562 C 96.914062 100.300781 96.863281 100.6875 96.726562 100.824219 C 96.550781 101.011719 93.9375 101.523438 93.8125 101.398438 C 93.773438 101.363281 93.75 101.039062 93.75 100.6875 C 93.75 99.300781 93.101562 98.261719 91.851562 97.636719 C 90.425781 96.925781 88.8125 97.1875 87.726562 98.324219 C 87.074219 99.011719 86.835938 99.636719 86.835938 100.726562 C 86.851562 102.800781 88.210938 104.148438 90.300781 104.164062 C 91.414062 104.164062 91.898438 103.960938 92.835938 103.085938 L 93.574219 102.414062 L 94.886719 102.261719 C 95.601562 102.1875 96.5 102.050781 96.875 101.960938 C 97.664062 101.789062 97.636719 101.835938 97.886719 99.8125 C 98.199219 97.210938 98.148438 96.300781 97.6875 95.835938 C 97.5 95.648438 96.085938 95.1875 94.375 94.75 C 91.851562 94.101562 91.011719 94 87.3125 93.863281 L 83.6875 93.726562 L 81.625 92.738281 C 79.289062 91.636719 77.875 91.125 76.0625 90.761719 C 74.585938 90.476562 72.3125 90.351562 71 90.5 Z M 91.210938 98.386719 C 91.800781 98.601562 92.488281 99.375 92.6875 100.039062 C 93.226562 101.863281 91.511719 103.636719 89.675781 103.125 C 88.636719 102.824219 87.75 101.710938 87.75 100.675781 C 87.75 100.273438 88 99.601562 88.324219 99.175781 C 88.898438 98.398438 90.261719 98.023438 91.210938 98.386719 Z M 91.210938 98.386719 "/>
<path style=" stroke:none;fill-rule:nonzero;fill:rgb(0%,0%,0%);fill-opacity:1;" d="M 64.125 93.4375 C 64 93.585938 64 93.710938 64.101562 93.925781 C 64.25 94.261719 64.25 94.261719 65.898438 94.613281 C 67.050781 94.863281 67.523438 94.875 74.300781 94.875 C 81.425781 94.875 81.488281 94.875 81.5625 94.625 C 81.761719 93.988281 81.851562 94 74.550781 94 C 67.574219 94 66.460938 93.9375 65.164062 93.488281 C 64.3125 93.199219 64.324219 93.199219 64.125 93.4375 Z M 64.125 93.4375 "/>
<path style=" stroke:none;fill-rule:nonzero;fill:rgb(0%,0%,0%);fill-opacity:1;" d="M 56.460938 95.699219 C 56.414062 95.75 56.375 95.949219 56.375 96.136719 C 56.375 96.5625 56.601562 96.625 58.0625 96.613281 C 59.574219 96.601562 59.8125 96.523438 59.8125 96.0625 L 59.8125 95.6875 L 58.175781 95.648438 C 57.289062 95.636719 56.511719 95.664062 56.460938 95.699219 Z M 56.460938 95.699219 "/>
<path style=" stroke:none;fill-rule:nonzero;fill:rgb(0%,0%,0%);fill-opacity:1;" d="M 61.550781 97.476562 C 60.210938 98.101562 59.5 99.226562 59.5 100.6875 C 59.5 102.738281 60.914062 104.148438 62.9375 104.148438 C 64.324219 104.148438 65.511719 103.4375 66.074219 102.261719 C 66.425781 101.574219 66.460938 100.050781 66.164062 99.363281 C 65.824219 98.613281 65.335938 98.0625 64.648438 97.664062 C 63.886719 97.210938 62.324219 97.113281 61.550781 97.476562 Z M 64.335938 98.664062 C 65.648438 99.574219 65.8125 101.3125 64.6875 102.4375 C 63.210938 103.925781 60.863281 103.148438 60.460938 101.039062 C 60.289062 100.125 61.011719 98.835938 61.9375 98.414062 C 62.550781 98.136719 63.75 98.261719 64.335938 98.664062 Z M 64.335938 98.664062 "/>
<path style=" stroke:none;fill-rule:nonzero;fill:rgb(0%,0%,0%);fill-opacity:1;" d="M 69.886719 99.335938 C 68.949219 100.101562 68.773438 100.5 69.238281 100.75 C 69.398438 100.824219 72.175781 100.875 77.363281 100.875 C 84.351562 100.875 85.25 100.851562 85.425781 100.675781 C 85.539062 100.574219 85.625 100.414062 85.625 100.324219 C 85.625 99.886719 85.449219 99.875 78.164062 99.875 C 74.136719 99.875 71 99.824219 71 99.761719 C 71 99.699219 71.085938 99.585938 71.1875 99.5 C 71.511719 99.226562 71.335938 98.625 70.925781 98.625 C 70.851562 98.625 70.375 98.949219 69.886719 99.335938 Z M 69.886719 99.335938 "/>
<path style=" stroke:none;fill-rule:nonzero;fill:rgb(0%,0%,0%);fill-opacity:1;" d="M 66.8125 102.125 C 66.675781 102.351562 66.875 102.75 67.164062 102.8125 C 67.3125 102.851562 71.710938 102.863281 76.9375 102.851562 L 86.4375 102.8125 L 86.4375 102.0625 L 76.664062 102.023438 C 70.148438 102.011719 66.863281 102.039062 66.8125 102.125 Z M 66.8125 102.125 "/>
<path style=" stroke:none;fill-rule:nonzero;fill:rgb(0%,0%,0%);fill-opacity:1;" d="M 23.25 147.5625 L 23.25 169.625 L 28.75 169.625 L 28.75 151.050781 L 30.199219 148.960938 L 31.648438 146.863281 L 32.613281 148.226562 C 33.136719 148.976562 36.710938 154.101562 40.5625 159.601562 L 47.5625 169.625 L 54.011719 169.625 L 53.613281 169.050781 C 53.398438 168.726562 49.136719 162.636719 44.164062 155.511719 C 39.175781 148.386719 35.074219 142.5 35.039062 142.414062 C 35 142.335938 37.574219 138.511719 40.75 133.914062 L 46.523438 125.5625 L 43.414062 125.523438 C 41.710938 125.511719 40.261719 125.511719 40.1875 125.550781 C 40.125 125.574219 37.539062 129.226562 34.4375 133.664062 L 28.8125 141.738281 L 28.773438 133.625 L 28.75 125.5 L 23.25 125.5 Z M 23.25 147.5625 "/>
<path style=" stroke:none;fill-rule:nonzero;fill:rgb(0%,0%,0%);fill-opacity:1;" d="M 57.125 147.5625 L 57.125 169.625 L 62.625 169.625 L 62.625 150.976562 L 64.011719 148.988281 C 64.789062 147.898438 65.449219 147 65.5 147 C 65.550781 147 69.148438 152.085938 73.5 158.3125 L 81.414062 169.625 L 87.863281 169.625 L 85.664062 166.460938 C 84.449219 164.738281 80.175781 158.625 76.164062 152.886719 C 72.148438 147.164062 68.851562 142.425781 68.835938 142.375 C 68.824219 142.324219 71.375 138.585938 74.5 134.0625 C 77.625 129.539062 80.238281 125.761719 80.289062 125.664062 C 80.375 125.523438 79.8125 125.5 77.164062 125.5 L 73.9375 125.511719 L 68.289062 133.648438 L 62.625 141.773438 L 62.625 125.5 L 57.125 125.5 Z M 57.125 147.5625 "/>
<path style=" stroke:none;fill-rule:nonzero;fill:rgb(0%,0%,0%);fill-opacity:1;" d="M 90.375 147.5625 L 90.375 169.625 L 95.875 169.625 L 95.898438 151.6875 L 95.9375 133.738281 L 103.0625 143.074219 C 106.988281 148.210938 110.25 152.5 110.324219 152.601562 C 110.425781 152.738281 111.976562 150.773438 117.699219 143.261719 L 124.9375 133.75 L 124.976562 151.6875 L 125 169.625 L 130.5 169.625 L 130.5 125.5 L 124.5625 125.5 L 117.5625 134.699219 C 113.710938 139.761719 110.523438 143.914062 110.488281 143.9375 C 110.449219 143.960938 107.25 139.824219 103.363281 134.75 L 96.3125 125.5 L 90.375 125.5 Z M 90.375 147.5625 "/>
<path style=" stroke:none;fill-rule:nonzero;fill:rgb(0%,0%,0%);fill-opacity:1;" d="M 124.914062 176.6875 C 123.226562 177.050781 121.8125 178.199219 121.050781 179.8125 C 120.199219 181.574219 120.335938 183.75 121.363281 185.351562 C 122.488281 187.0625 124.199219 188 126.25 188 C 129.738281 187.988281 132.375 184.925781 131.886719 181.425781 C 131.550781 179.050781 129.574219 177.011719 127.25 176.636719 C 126.238281 176.476562 125.886719 176.476562 124.914062 176.6875 Z M 128.3125 177.613281 C 130.976562 178.851562 132.101562 182.011719 130.800781 184.585938 C 130.363281 185.449219 129.199219 186.550781 128.289062 186.960938 C 127.324219 187.414062 125.726562 187.511719 124.738281 187.1875 C 123.335938 186.738281 122.199219 185.738281 121.539062 184.386719 C 121.226562 183.75 121.1875 183.5625 121.1875 182.3125 C 121.1875 181.0625 121.226562 180.863281 121.550781 180.164062 C 121.925781 179.335938 123.085938 178.101562 123.835938 177.699219 C 125.175781 177.011719 126.960938 176.976562 128.3125 177.613281 Z M 128.3125 177.613281 "/>
<path style=" stroke:none;fill-rule:nonzero;fill:rgb(0%,0%,0%);fill-opacity:1;" d="M 24.636719 182.25 C 23.539062 185.273438 22.625 187.773438 22.625 187.8125 C 22.625 187.851562 22.761719 187.875 22.925781 187.875 C 23.164062 187.875 23.273438 187.761719 23.425781 187.335938 C 23.539062 187.050781 23.949219 185.9375 24.351562 184.875 L 25.0625 182.9375 L 28.9375 182.9375 L 29.824219 185.375 C 30.675781 187.6875 30.738281 187.8125 31.0625 187.851562 C 31.351562 187.886719 31.398438 187.863281 31.324219 187.664062 C 31.273438 187.539062 30.449219 185.273438 29.488281 182.625 C 28.523438 179.976562 27.648438 177.574219 27.539062 177.273438 C 27.375 176.835938 27.289062 176.75 27 176.75 C 26.664062 176.75 26.625 176.851562 24.636719 182.25 Z M 27.851562 179.914062 C 28.273438 181.085938 28.625 182.136719 28.625 182.210938 C 28.625 182.335938 28.210938 182.375 27 182.375 C 25.789062 182.375 25.375 182.335938 25.375 182.210938 C 25.375 182 26.925781 177.75 27 177.75 C 27.039062 177.75 27.414062 178.726562 27.851562 179.914062 Z M 27.851562 179.914062 "/>
<path style=" stroke:none;fill-rule:nonzero;fill:rgb(0%,0%,0%);fill-opacity:1;" d="M 56.773438 181.085938 C 56.8125 185.324219 56.824219 185.449219 57.101562 185.960938 C 57.789062 187.273438 58.886719 187.925781 60.375 187.925781 C 61.925781 187.925781 63.050781 187.210938 63.699219 185.824219 C 64 185.1875 64 185.148438 64 180.960938 C 64 176.886719 63.988281 176.75 63.761719 176.75 C 63.523438 176.75 63.511719 176.898438 63.476562 180.835938 C 63.4375 185.511719 63.414062 185.601562 62.351562 186.585938 C 61.1875 187.648438 59.5625 187.648438 58.398438 186.585938 C 57.386719 185.648438 57.375 185.636719 57.375 180.898438 L 57.375 176.75 L 56.738281 176.75 Z M 56.773438 181.085938 "/>
<path style=" stroke:none;fill-rule:nonzero;fill:rgb(0%,0%,0%);fill-opacity:1;" d="M 89.625 177 C 89.625 177.226562 89.726562 177.25 91.039062 177.273438 L 92.4375 177.3125 L 92.476562 182.585938 C 92.5 187.773438 92.511719 187.875 92.75 187.875 C 93 187.875 93 187.789062 93 182.5625 L 93 177.25 L 94.4375 177.25 C 95.789062 177.25 95.875 177.238281 95.875 177 C 95.875 176.761719 95.789062 176.75 92.75 176.75 C 89.726562 176.75 89.625 176.761719 89.625 177 Z M 89.625 177 "/>
</g>
</svg>
